<svg width="55" height="75" fill="none" xmlns="http://www.w3.org/2000/svg"><path d="M54.902.194h-55v75h55v-75z" fill="#fff"/><path d="M54.13.972v73.396H.77V.972h53.36z" fill="#000"/><path d="M51.282 3.742H3.664v11.18h47.618V3.742zm.05 13.95H3.762v43.65h47.57v-43.65z" fill="#fff"/><path d="M6.462 5.882c1.062 0 1.496.291 1.496 1.264v1.458c0 .923-.434 1.264-1.4 1.264h-.24v2.965h-.869V5.882h1.013zM6.27 9.138h.145c.53 0 .627-.194.627-.826V7.39c0-.632-.096-.827-.627-.827H6.27v2.576zm3.328-3.256c1.013 0 1.447.291 1.447 1.166v1.118c0 .68-.24 1.021-.964 1.07.771.048 1.013.389 1.013 1.166v2.43h-.965v-2.43c0-.632-.097-.777-.724-.777h-.193v3.208h-.868V5.882h1.254zM9.26 8.895h.193c.58 0 .676-.194.676-.777V7.34c0-.583-.145-.778-.676-.778H9.26v2.333zm3.38-3.013v6.95h-.917v-6.95h.916zm1.25 0l.628 5.833h.048l.58-5.833h.771l-.868 6.95H13.89l-.965-6.95h.965zm4.344 0l1.061 6.95h-.965l-.241-1.75h-1.158l-.241 1.75h-.772l1.11-6.95h1.206zm-1.158 4.472h.965l-.434-3.694h-.049l-.482 3.694zm5.114-2.577h-.869v-.486c0-.535-.096-.826-.386-.826-.386 0-.434.291-.434.972v3.791c0 .68.048.972.434.972.29 0 .386-.243.386-.777v-.632h.917v.631c0 1.07-.29 1.507-1.303 1.507-1.061 0-1.302-.534-1.302-1.847v-3.45c0-1.313.29-1.848 1.302-1.848 1.014 0 1.303.438 1.303 1.507v.486h-.048zm.87-1.895l.627 3.062h.048l.58-3.062h.771l-1.061 4.034v2.868h-.869V9.916l-.965-4.034h.869zm6.27 1.895h-.868v-.486c0-.535-.096-.826-.386-.826-.386 0-.434.291-.434.972v3.791c0 .68.048.972.434.972.29 0 .386-.243.386-.777v-.632h.917v.631c0 1.07-.29 1.507-1.303 1.507-1.061 0-1.303-.534-1.303-1.847v-3.45c0-1.313.29-1.848 1.303-1.848s1.303.438 1.303 1.507l-.049.486zm2.606-1.895v.729H30.78v2.187h1.11v.73h-1.11v2.527h1.254v.729H29.91V5.882h2.026zm1.735 0c1.013 0 1.447.291 1.447 1.166v1.118c0 .68-.24 1.021-.965 1.07.772.048 1.014.389 1.014 1.166v2.43h-.917v-2.43c0-.632-.097-.777-.724-.777h-.193v3.208h-.868V5.882h1.206zm-.29 3.013h.194c.578 0 .675-.194.675-.777V7.34c0-.583-.145-.778-.675-.778h-.194v2.333zm4.633-3.013v.729h-.82v6.173h-.917V6.611h-.82v-.73h2.557zm1.207 0v6.95h-.916v-6.95h.916zm2.849 0v.729h-1.16v2.284h1.11v.73h-1.11v3.208h-.868V5.882h2.026zm1.397 0v6.95h-.916v-6.95h.916zm2.751 0v.729H45.06v2.187h1.11v.73h-1.11v2.527h1.254v.729h-2.123V5.882h2.027zm1.589 0c1.448 0 1.737.389 1.737 1.944v3.062c0 1.507-.29 1.945-1.737 1.945h-.916V5.882h.916zm-.048 6.222h.193c.579 0 .724-.146.724-.778V7.34c0-.583-.145-.778-.724-.778h-.193v5.542z" fill="#000"/><path d="M3.809 70.868v-6.561h9.552v1.555H7.668v.924h4.825v1.555H7.668v1.02h5.934v1.507H3.81zm17.945-4.618c-.048-.242-.29-.34-.579-.437-.289-.097-.627-.097-1.013-.097-.868 0-1.206.146-1.206.389 0 .972 6.755.389 6.755 2.77 0 1.507-2.268 2.285-5.5 2.285-3.088 0-5.114-1.02-5.211-2.187h3.667c.096.243.29.389.627.534.29.097.723.146 1.11.146.964 0 1.592-.146 1.592-.486 0-.972-6.755-.292-6.755-2.82 0-1.409 2.171-2.09 5.114-2.09 3.281 0 4.728.924 5.018 2.09h-3.619v-.096zm9.699.924h1.496c1.206 0 1.833-.194 1.833-.632 0-.486-.675-.68-1.543-.68h-1.786v1.312zm0 1.41v2.284h-3.86v-6.561h5.549c3.908 0 5.21.583 5.21 1.895 0 .778-.578 1.41-1.977 1.604 1.254.243 1.977.39 1.977 1.75 0 .875-.048 1.167.387 1.167v.194H34.83c-.097-.146-.193-.583-.193-1.166 0-.875-.242-1.118-2.075-1.118l-1.11-.049zm13.075-2.722v1.118h1.592c.772 0 1.302-.194 1.302-.583 0-.535-.772-.535-1.543-.535h-1.351zm0 2.285v1.215h1.688c.965 0 1.689-.097 1.689-.584 0-.583-.917-.631-2.123-.631h-1.254zm-3.86 2.721v-6.561h5.596c2.654 0 4.728.34 4.728 1.652 0 .68-.771 1.167-1.543 1.41 1.254.194 1.978.778 1.978 1.507 0 1.458-2.027 1.992-5.066 1.992h-5.693zM9.117 32.177c-.917.632-1.593 1.459-1.544 2.722.048 1.313.868 2.09 1.978 2.625-.627 1.07-.917 2.09-.338 3.208.579 1.167 1.592 1.556 2.847 1.556v.826c-.049 1.993 1.785 3.354 3.666 2.722.531-.195.676-.049.869.437.675 1.944 2.99 2.528 4.535 1.118.145-.146.29-.243.482-.437.772 1.02 1.737 1.507 2.943 1.312 1.255-.194 1.882-1.118 2.364-2.236 1.11.584 2.22.68 3.233 0 1.061-.729 1.302-1.798 1.206-3.013 1.206 0 2.267-.243 2.943-1.313.675-1.07.482-2.187-.097-3.305 1.158-.438 1.978-1.167 2.171-2.43.193-1.264-.434-2.188-1.35-2.917.096-.097.096-.194.144-.243 1.689-1.555.965-4.472-1.254-4.909-.386-.097-.338-.292-.29-.583.097-.535.193-1.118.097-1.653-.29-1.458-1.447-2.187-3.088-2.09-.434.049-.627-.049-.675-.535-.145-1.507-1.351-2.576-2.847-2.479-.627.049-1.254.34-1.978.535-.53-.923-1.254-1.701-2.557-1.75-1.303-.048-2.123.632-2.798 1.75-.965-.826-1.978-1.166-3.184-.68-1.206.486-1.689 1.458-1.834 2.722-.193-.05-.29-.05-.386-.098-2.508-.534-4.052 1.604-3.425 3.549.096.34-.048.437-.386.534-1.689.39-2.557 1.653-2.22 3.305.097.632.435 1.167.773 1.75z" fill="#fff"/><path d="M37.726 35.435c0 .097-.048.145-.048.194-.048 1.361-.579 2.43-1.592 3.305-.145.098-.193.438-.145.68.29 2.09-.868 3.986-2.895 4.618-.193.049-.337.195-.53.292.144.146.29.34.434.438 3.04 1.652 6.079 3.256 9.07 4.909.145.097.338.145.482.243v-5.541c0-.243.194-.535.386-.68.676-.487 1.4-.924 2.075-1.362.82-.535 1.689-1.118 2.605-1.701a240.92 240.92 0 00-9.842-5.395zM26.34 59.98c.194-.194.29-.34.435-.485a218.085 218.085 0 013.088-3.889c.144-.145.386-.34.579-.34.723.049 1.399.146 2.122.243 1.158.146 2.268.243 3.57.389-1.398-3.354-2.701-6.66-4.052-9.964-1.303 1.555-2.22 1.944-4.15 1.847-.192 0-.482.145-.626.34-.869 1.02-1.93 1.555-3.233 1.507-.675-.049-1.302-.243-2.026-.39 1.399 3.598 2.846 7.146 4.294 10.743zm21.23-4.18c-1.254 0-2.218.972-2.218 2.236 0 1.215 1.013 2.187 2.219 2.187 1.254 0 2.17-.972 2.17-2.236a2.17 2.17 0 00-2.17-2.187z" fill="#fff"/><path d="M9.117 32.177c-.29-.631-.676-1.166-.772-1.75-.338-1.652.579-2.916 2.219-3.305.338-.097.482-.194.386-.534-.627-1.945.917-4.083 3.425-3.549.097 0 .242.049.386.098.145-1.216.628-2.236 1.834-2.722 1.158-.438 2.17-.098 3.184.68.675-1.118 1.495-1.798 2.798-1.75 1.254.049 2.026.827 2.557 1.75.724-.194 1.351-.486 1.978-.535 1.496-.097 2.702.973 2.847 2.48.048.534.24.583.675.534 1.64-.097 2.798.632 3.088 2.09.096.535 0 1.118-.097 1.653-.048.291-.096.534.29.583 2.22.486 2.991 3.354 1.254 4.91a1.067 1.067 0 00-.144.242c.964.73 1.543 1.653 1.35 2.917-.193 1.263-1.013 1.944-2.17 2.43.578 1.118.771 2.187.096 3.305-.676 1.07-1.737 1.361-2.943 1.313.096 1.215-.145 2.284-1.206 3.013-1.062.68-2.123.584-3.233 0-.434 1.118-1.061 2.042-2.364 2.236-1.254.195-2.17-.291-2.943-1.312a4.355 4.355 0 00-.482.437c-1.544 1.41-3.86.827-4.535-1.118-.193-.486-.338-.632-.869-.437-1.881.632-3.715-.73-3.666-2.722v-.826c-1.207 0-2.22-.39-2.847-1.556-.579-1.118-.29-2.187.338-3.208-1.11-.535-1.93-1.312-1.978-2.625-.049-1.263.627-2.09 1.544-2.722zm13.026 13.95c6.706 0 12.11-5.395 12.158-12.151.048-6.708-5.452-12.2-12.158-12.2-6.61 0-12.062 5.444-12.062 12.103-.048 6.756 5.356 12.248 12.062 12.248z" fill="#085EA9"/><path d="M37.729 35.435c3.329 1.798 6.561 3.548 9.89 5.346-.917.584-1.737 1.167-2.605 1.702-.676.437-1.4.874-2.075 1.36-.193.146-.386.438-.386.681-.048 1.847 0 3.645 0 5.541a2.247 2.247 0 01-.482-.243c-3.04-1.653-6.08-3.257-9.07-4.91-.193-.096-.29-.29-.435-.437.193-.097.338-.243.531-.291 1.978-.632 3.184-2.528 2.895-4.618-.048-.194 0-.535.145-.68 1.013-.875 1.543-1.945 1.592-3.306v-.145zM26.34 59.98a1702.135 1702.135 0 01-4.39-10.693c.723.145 1.35.34 2.026.389 1.302.048 2.364-.486 3.232-1.507.145-.195.434-.34.627-.34 1.93.097 2.847-.292 4.15-1.848 1.35 3.306 2.701 6.61 4.052 9.965-1.254-.146-2.412-.292-3.57-.39-.724-.096-1.4-.194-2.123-.242-.193 0-.483.146-.579.34-1.061 1.264-2.075 2.576-3.088 3.889a1.765 1.765 0 01-.337.437z" fill="#085EA9"/><path d="M22.143 46.127c-6.706 0-12.061-5.492-12.061-12.297 0-6.66 5.452-12.103 12.061-12.103 6.707.048 12.207 5.54 12.158 12.248-.048 6.708-5.5 12.152-12.158 12.152zm-5.789-12.589a74.87 74.87 0 01.338-3.257c-1.303-.486-2.46-1.118-3.33-2.284-1.012 1.264-1.88 4.034-1.736 5.492 1.592.049 3.136.049 4.728.049zm-4.776.924c.144 2.041.675 3.84 1.785 5.54.868-1.215 2.074-1.798 3.329-2.333a65.417 65.417 0 00-.338-3.207h-4.776zm19.443-6.417c-.82 1.07-1.882 1.702-3.088 2.188-.145.048-.241.291-.241.486.048.777.144 1.604.193 2.381 0 .39.144.535.53.535h2.799c1.64 0 1.64 0 1.35-1.604-.193-1.458-.675-2.77-1.543-3.986zm0 11.909c1.013-1.653 1.64-3.354 1.688-5.25 0-.097-.29-.34-.434-.34-1.303-.048-2.605 0-3.86 0-.337 0-.482.146-.482.486-.048.827-.145 1.604-.193 2.43 0 .146.145.39.241.487 1.206.486 2.268 1.118 3.04 2.187zm-5.356-13.658c-1.157.243-2.074.388-2.99.631-.146.05-.339.195-.339.292-.048 1.02 0 2.042 0 3.257 1.544-.195 2.992-.39 4.584-.632-.483-1.361-.869-2.528-1.255-3.548zM26.92 38.3c-1.544-.437-2.992-.68-4.535-.632v3.257c1.061.243 2.122.535 3.28.826.386-1.069.772-2.235 1.255-3.45zm-5.307-11.276a85.214 85.214 0 01-2.847-.778c-.386 1.118-.82 2.236-1.254 3.548 1.495.243 2.798.438 4.149.632-.048-1.264-.048-2.382-.048-3.402zm-.049 13.95v-3.403c-1.35.195-2.653.39-4.1.632.482 1.313.916 2.48 1.302 3.548 1.013-.291 1.882-.534 2.799-.777zm.82-7.388h4.536c.096 0 .337-.244.29-.34a37.962 37.962 0 00-.194-2.334c0-.097-.241-.243-.337-.243-1.448.195-2.847.438-4.294.68v2.237zm0 3.062c1.448.243 2.847.437 4.198.68.338.049.482 0 .482-.34.049-.68.145-1.312.194-1.993.048-.437-.097-.632-.58-.632-1.254.049-2.556 0-3.81 0-.146 0-.339.049-.483.049v2.236zm-5.017-6.027c-.096.972-.193 1.895-.241 2.916h4.487v-2.284a128.071 128.071 0 01-4.246-.632zm0 6.707c1.447-.243 2.847-.437 4.246-.632V34.46h-4.487a49.04 49.04 0 00.241 2.868zm10.228-7.874c1.062-.34 2.075-.875 2.798-1.798.097-.146.097-.486-.048-.584a55.088 55.088 0 00-2.509-2.236c-.096-.097-.385-.097-.482 0-.386.292-.772.68-1.061.973.386 1.166.82 2.381 1.302 3.645zm-1.302 12.784c.337.291.675.631 1.061.923.097.097.386.097.482.049a57.29 57.29 0 002.557-2.285c.097-.097.145-.389.049-.486-.724-1.02-1.737-1.507-2.847-1.896a68.248 68.248 0 00-1.302 3.695zm-9.457-12.784c.29-.875.531-1.653.772-2.382.145-.437.531-.875.435-1.215-.049-.34-.628-.583-.917-.923-.241-.292-.434-.34-.724-.098-.772.73-1.592 1.41-2.364 2.14-.29.29-.241.534 0 .777.82.826 1.737 1.312 2.798 1.701zm-.048 9.09c-1.013.388-1.978.826-2.702 1.7-.144.147-.24.487-.144.584a9.475 9.475 0 002.846 2.527c.483-.437.869-.777 1.303-1.117-.434-1.216-.82-2.43-1.303-3.695zm5.597 5.88c1.254-.096 2.026-.923 2.75-1.895-.917-.389-1.785-.68-2.75-.535v2.43zm0-20.851v2.576a72.797 72.797 0 002.75-.632c-.724-1.07-1.496-1.799-2.75-1.944zm-.772.048c-1.013.292-1.689.972-2.364 1.896.82.194 1.544.389 2.364.583v-2.479zm-2.364 18.86c.675.923 1.35 1.604 2.364 1.895v-2.479c-.82.195-1.544.34-2.364.584zm-1.785-18.276c.434.34.771.631 1.11.874.53-.583.964-1.117 1.447-1.652 0-.049-.049-.049-.049-.097-.771.243-1.592.534-2.508.875zm0 19.588c.965.34 1.737.583 2.508.875 0-.049.049-.049.049-.097a50.893 50.893 0 01-1.448-1.653c-.338.243-.627.486-1.11.875zm8.394-.875c-.53.583-1.013 1.118-1.495 1.653 0 .048 0 .048.048.097.82-.292 1.592-.535 2.509-.875-.483-.34-.772-.632-1.062-.875zm0-17.839c.338-.243.627-.534 1.062-.874-.917-.34-1.737-.584-2.509-.875v.097c.434.534.917 1.02 1.447 1.652z" fill="#fff"/><path d="M16.353 33.538h-4.728c-.145-1.458.724-4.228 1.737-5.492.868 1.118 2.026 1.75 3.329 2.284-.193 1.07-.241 2.14-.338 3.208zm-4.775.924h4.776c.097 1.07.193 2.09.338 3.208-1.254.486-2.46 1.118-3.329 2.333-1.206-1.75-1.688-3.548-1.785-5.541zm19.442-6.416c.82 1.215 1.303 2.527 1.592 3.937.242 1.604.242 1.604-1.399 1.604h-2.798c-.386 0-.53-.146-.53-.535-.049-.777-.145-1.604-.194-2.381 0-.146.097-.438.242-.486 1.254-.438 2.315-1.07 3.087-2.14zm0 11.909c-.82-1.07-1.881-1.701-3.087-2.187-.145-.049-.242-.292-.242-.486.049-.827.145-1.604.193-2.43 0-.34.145-.487.483-.487h3.86c.144 0 .434.195.434.34.048 1.945-.58 3.646-1.64 5.25zm-5.355-13.659c.386 1.02.772 2.187 1.254 3.5-1.592.243-3.04.437-4.583.631v-3.256c0-.097.193-.292.338-.292.965-.194 1.833-.34 2.99-.583zm1.255 12.006c-.434 1.215-.868 2.382-1.206 3.451-1.206-.291-2.219-.535-3.28-.826V37.67c1.447-.048 2.943.195 4.486.632zm-5.306-11.277v3.402a221.83 221.83 0 01-4.15-.632c.483-1.312.87-2.479 1.255-3.548 1.013.243 1.93.486 2.895.778zm-.049 13.951c-.917.243-1.786.486-2.847.777-.386-1.069-.868-2.236-1.35-3.548 1.447-.243 2.75-.437 4.148-.632.049 1.264.049 2.333.049 3.403zm.822-7.389v-2.236c1.447-.243 2.895-.486 4.294-.68.096 0 .337.146.337.243.097.778.193 1.555.193 2.333 0 .097-.193.34-.29.34h-4.534zm0 3.062v-2.187c.145 0 .337-.049.482-.049h3.812c.482 0 .627.195.578.632-.096.632-.144 1.312-.192 1.993-.049.34-.193.389-.483.34-1.399-.292-2.75-.486-4.197-.729zm-5.021-6.027c1.448.243 2.799.438 4.246.632v2.284h-4.487c.048-.972.145-1.944.241-2.916zm.002 6.708c-.097-.924-.193-1.896-.29-2.868h4.487v2.236c-1.35.194-2.75.437-4.197.632zm10.228-7.875c-.435-1.264-.869-2.43-1.303-3.645.338-.292.675-.68 1.061-.972.097-.098.386-.098.483 0a56.096 56.096 0 012.509 2.235c.096.098.144.438.048.584-.724.923-1.785 1.41-2.798 1.798zM26.293 42.24c.434-1.216.868-2.383 1.303-3.646 1.11.389 2.122.875 2.846 1.895.048.098.048.39-.048.486-.82.778-1.689 1.507-2.557 2.285-.097.097-.386.049-.483-.049-.434-.34-.723-.68-1.061-.972zm-9.455-12.784c-1.061-.389-1.978-.875-2.701-1.701-.242-.292-.338-.535 0-.778.771-.73 1.592-1.41 2.364-2.139.29-.243.482-.194.723.097.29.34.82.584.917.924.048.34-.29.778-.434 1.215-.338.778-.58 1.555-.869 2.382zm-.05 9.089c.435 1.264.869 2.479 1.303 3.694-.386.34-.82.73-1.303 1.118a9.474 9.474 0 01-2.846-2.528c-.097-.097.048-.437.145-.583.723-.875 1.688-1.312 2.701-1.701zm5.599 5.881v-2.43c.965-.098 1.833.194 2.75.534-.724.972-1.496 1.799-2.75 1.896zm0-20.852c1.254.146 2.026.924 2.75 1.993-.965.195-1.834.389-2.75.632v-2.625zm-.773.049v2.479c-.772-.194-1.496-.389-2.364-.583.627-.924 1.303-1.604 2.364-1.896zM19.25 42.482c.868-.195 1.544-.39 2.364-.584v2.48c-1.013-.292-1.737-.973-2.364-1.896zm-1.785-18.276c.916-.34 1.688-.583 2.509-.875 0 .049.048.049.048.097a56.33 56.33 0 00-1.447 1.653c-.29-.292-.628-.535-1.11-.875zm0 19.589c.482-.389.772-.632 1.11-.875.53.583.964 1.118 1.447 1.652 0 .05-.048.05-.048.098-.772-.292-1.544-.535-2.51-.875zm8.393-.875c.289.243.627.486 1.11.875-.918.34-1.738.583-2.51.875 0-.049 0-.049-.048-.098.434-.534.917-1.069 1.448-1.652zm0-17.84a39.669 39.669 0 01-1.448-1.652v-.097c.772.292 1.592.535 2.509.875-.483.34-.772.583-1.061.875z" fill="#085EA9"/><path d="M47.04 57.842c0-.34.047-.535.047-.826.338.097.58.145.869.243.048 0 .048.243 0 .243-.29.145-.58.194-.917.34z" fill="#fff"/><path d="M47.521 57.745c.386 0 .483-.146.483-.34 0-.195-.097-.292-.434-.292h-.483v.632h.434zm-.434.388v1.07h-.434v-2.48h.868c.483 0 .965.147.965.681 0 .292-.193.486-.53.583.337.05.386.244.434.487.048.243.048.486.145.729h-.531c-.048-.146-.048-.292-.097-.438-.048-.194-.048-.389-.144-.534-.097-.098-.242-.098-.386-.098h-.29zm2.268-.146c0-.972-.82-1.7-1.834-1.7-1.013 0-1.833.777-1.833 1.7 0 .973.82 1.75 1.833 1.75 1.062-.048 1.834-.826 1.834-1.75zm-4.101 0c0-1.166 1.013-2.09 2.267-2.09 1.255 0 2.22.924 2.22 2.09 0 1.167-1.013 2.09-2.22 2.09-1.206 0-2.267-.971-2.267-2.09z" fill="#151011"/></svg>