<svg width="963" height="898" fill="none" xmlns="http://www.w3.org/2000/svg"><mask id="a" maskUnits="userSpaceOnUse" x="151" y="123" width="673" height="726"><path d="M235.103 300.065c47.056-64.108 117.217-107.864 195.969-122.21" stroke="url(#paint0_linear)" stroke-width="3" stroke-linecap="round"/><path d="M210.443 339.611a308.14 308.14 0 0119.856-32.814" stroke="url(#paint1_linear)" stroke-width="3" stroke-linecap="round"/><path d="M187.211 348.252c31.282-69.043 85.877-125.156 154.412-158.703" stroke="url(#paint2_linear)" stroke-width="3" stroke-linecap="round"/><path d="M355.114 183.503a331.647 331.647 0 0183.365-23.904" stroke="url(#paint3_linear)" stroke-width="3" stroke-linecap="round"/><path d="M246.618 356.978c24.715-46.819 62.815-85.404 109.548-110.937" stroke="url(#paint4_linear)" stroke-width="3" stroke-linecap="round"/><path d="M376.072 236.194a273.9 273.9 0 0160.553-18.9" stroke="url(#paint5_linear)" stroke-width="3" stroke-linecap="round"/><path d="M229.145 351.948c20.758-40.538 50.958-75.613 88.112-102.331 37.154-26.717 80.195-44.311 125.574-51.328" stroke="url(#paint6_linear)" stroke-width="3" stroke-linecap="round"/><path d="M552.983 207.706c37.585 8.794 72.965 25.073 103.982 47.843 31.017 22.77 57.02 51.553 76.425 84.593" stroke="url(#paint7_linear)" stroke-width="3" stroke-linecap="round"/><path d="M564.5 188.676c75.882 19.523 141.282 67.143 182.694 133.016" stroke="url(#paint8_linear)" stroke-width="3" stroke-linecap="round"/><path d="M563.492 173.839a322.065 322.065 0 0182.033 32.221" stroke="url(#paint9_linear)" stroke-width="3" stroke-linecap="round"/><path d="M667.703 219.727c42.999 28.974 78.212 67.882 102.591 113.353" stroke="url(#paint10_linear)" stroke-width="3" stroke-linecap="round"/><path d="M570.456 150.046c49.493 12.121 95.656 34.944 135.17 66.827 39.514 31.883 71.396 72.034 93.356 117.565" stroke="url(#paint11_linear)" stroke-width="3" stroke-linecap="round"/><path d="M819.936 445.545a327.621 327.621 0 01-15.777 142.376c-15.702 45.75-41.338 87.543-75.109 122.441" stroke="url(#paint12_linear)" stroke-width="3" stroke-linecap="round"/><path d="M776.374 459.181c5.851 74.069-17.586 147.496-65.376 204.803" stroke="url(#paint13_linear)" stroke-width="3" stroke-linecap="round"/><path d="M798.444 455.099a305.605 305.605 0 01-4.498 84.879" stroke="url(#paint14_linear)" stroke-width="3" stroke-linecap="round"/><path d="M789.91 557.83c-12.29 47.683-35.918 91.769-68.918 128.584" stroke="url(#paint15_linear)" stroke-width="3" stroke-linecap="round"/><path d="M757.624 450.925A266.307 266.307 0 01746.74 562.62c-11.523 36.061-30.601 69.313-55.991 97.585" stroke="url(#paint16_linear)" stroke-width="3" stroke-linecap="round"/><path d="M595.317 728.474c-47.601 20.34-100.087 26.783-151.268 18.571" stroke="url(#paint17_linear)" stroke-width="3" stroke-linecap="round"/><path d="M607.397 686.915a241.275 241.275 0 01-75.286 27.643" stroke="url(#paint18_linear)" stroke-width="3" stroke-linecap="round"/><path d="M428.935 744.183a273.741 273.741 0 01-62.664-21.93" stroke="url(#paint19_linear)" stroke-width="3" stroke-linecap="round"/><path d="M600.995 745.302a292.387 292.387 0 01-121.649 22.776c-41.735-1.172-82.72-11.256-120.149-29.562" stroke="url(#paint20_linear)" stroke-width="3" stroke-linecap="round"/><path d="M277.303 662.966c-26.695-30.291-46.383-65.984-57.691-104.585a273.286 273.286 0 01-7.776-118.899" stroke="url(#paint21_linear)" stroke-width="3" stroke-linecap="round"/><path d="M263.582 676.974a295.277 295.277 0 01-44.333-65.722" stroke="url(#paint22_linear)" stroke-width="3" stroke-linecap="round"/><path d="M211.719 594.737c-20.821-49.675-27.548-104.031-19.458-157.209" stroke="url(#paint23_linear)" stroke-width="3" stroke-linecap="round"/><path d="M257.013 692.202c-30.996-33.215-54.288-72.725-68.251-115.771a307.45 307.45 0 01-12.59-133.448" stroke="url(#paint24_linear)" stroke-width="3" stroke-linecap="round"/><path d="M248.098 712.437c-36.211-36.771-63.277-81.377-79.056-130.287" stroke="url(#paint25_linear)" stroke-width="3" stroke-linecap="round"/><path d="M164.662 567.399a327.546 327.546 0 01-10.127-115.384" stroke="url(#paint26_linear)" stroke-width="3" stroke-linecap="round"/><path d="M607.113 760.017a308.537 308.537 0 01-119.315 24.087 308.567 308.567 0 01-119.354-23.902" stroke="url(#paint27_linear)" stroke-width="3" stroke-linecap="round"/><path d="M625.165 777.242a331.547 331.547 0 01-76.766 24.229" stroke="url(#paint28_linear)" stroke-width="3" stroke-linecap="round"/><path d="M529.635 804.413c-61.327 7.825-123.64-1.611-179.795-27.225" stroke="url(#paint29_linear)" stroke-width="3" stroke-linecap="round"/><path d="M487.557 846.866c-56.496 0-112.237-12.831-162.933-37.503" stroke="url(#paint30_linear)" stroke-width="3" stroke-linecap="round"/><path d="M811.069 671.8c-21.034 35.019-47.732 66.387-79.03 92.852" stroke="url(#paint31_linear)" stroke-width="3" stroke-linecap="round"/><path d="M707.014 166.015a385.799 385.799 0 0171.905 63.363" stroke="url(#paint32_linear)" stroke-width="3" stroke-linecap="round"/><path d="M674.722 296.322a261.968 261.968 0 0150.463 69.838" stroke="url(#paint33_linear)" stroke-width="3" stroke-linecap="round"/><path d="M250.035 201.828c44.912-37.349 98.173-63.57 155.369-76.488" stroke="url(#paint34_linear)" stroke-width="3" stroke-linecap="round"/><path d="M265.87 370.186a245.825 245.825 0 0133.156-49.02" stroke="url(#paint35_linear)" stroke-width="3" stroke-linecap="round"/></mask><g mask="url(#a)"><path fill="#C4C4C4" d="M100.34 85.509h774.438v812.358H100.34z"/><path fill="url(#paint36_linear)" d="M100.34 85.509h774.438v812.358H100.34z"/></g><g filter="url(#filter0_ddd)"><path fill-rule="evenodd" clip-rule="evenodd" d="M404.924 128.794c2.211 0 4.005-1.774 4.005-3.963s-1.794-3.964-4.005-3.964c-2.212 0-4.006 1.775-4.006 3.964s1.794 3.963 4.006 3.963zm37.051 30.511c0 2.189-1.793 3.964-4.005 3.964-2.212 0-4.005-1.775-4.005-3.964s1.793-3.963 4.005-3.963c2.212 0 4.005 1.774 4.005 3.963zm-12.126 22.541c2.212 0 4.005-1.774 4.005-3.963 0-2.19-1.793-3.964-4.005-3.964-2.212 0-4.005 1.774-4.005 3.964 0 2.189 1.793 3.963 4.005 3.963zm16.595 16.353c0 2.189-1.793 3.963-4.005 3.963-2.212 0-4.005-1.774-4.005-3.963s1.793-3.964 4.005-3.964c2.212 0 4.005 1.775 4.005 3.964zm204.554 8.075c0 2.189-1.793 3.964-4.005 3.964-2.212 0-4.005-1.775-4.005-3.964s1.793-3.963 4.005-3.963c2.212 0 4.005 1.774 4.005 3.963zm-213.32 14.548c2.211 0 4.005-1.774 4.005-3.963s-1.794-3.964-4.005-3.964c-2.212 0-4.006 1.775-4.006 3.964s1.794 3.963 4.006 3.963zm-81.884 29.958c2.212 0 4.005-1.774 4.005-3.963s-1.793-3.964-4.005-3.964c-2.212 0-4.005 1.775-4.005 3.964s1.793 3.963 4.005 3.963zm424.766-16.767c2.212 0 4.005-1.774 4.005-3.964 0-2.189-1.793-3.963-4.005-3.963-2.212 0-4.005 1.774-4.005 3.963 0 2.19 1.793 3.964 4.005 3.964zm-75.968-21.006c0 2.189-1.793 3.963-4.005 3.963-2.212 0-4.005-1.774-4.005-3.963s1.793-3.964 4.005-3.964c2.212 0 4.005 1.775 4.005 3.964zm94.25 125.303c2.211 0 4.005-1.774 4.005-3.963s-1.794-3.964-4.005-3.964c-2.212 0-4.005 1.775-4.005 3.964s1.793 3.963 4.005 3.963zm-25.445-5.587c0 2.189-1.793 3.964-4.005 3.964-2.212 0-4.005-1.775-4.005-3.964s1.793-3.963 4.005-3.963c2.212 0 4.005 1.774 4.005 3.963zm-25.111-5.905c2.212 0 4.005-1.775 4.005-3.964s-1.793-3.963-4.005-3.963c-2.212 0-4.005 1.774-4.005 3.963s1.793 3.964 4.005 3.964zm-9.295 14.611c0 2.189-1.793 3.964-4.005 3.964-2.212 0-4.006-1.775-4.006-3.964s1.794-3.963 4.006-3.963 4.005 1.774 4.005 3.963zm54.342 204.659c2.212 0 4.005-1.774 4.005-3.963s-1.793-3.964-4.005-3.964c-2.212 0-4.005 1.775-4.005 3.964s1.793 3.963 4.005 3.963zm30.083-22.339c0 2.189-1.793 3.963-4.005 3.963-2.212 0-4.005-1.774-4.005-3.963s1.793-3.964 4.005-3.964c2.212 0 4.005 1.775 4.005 3.964zM692.161 662.677c2.212 0 4.005-1.774 4.005-3.963s-1.793-3.964-4.005-3.964c-2.212 0-4.005 1.775-4.005 3.964s1.793 3.963 4.005 3.963zm23.83.221c0 2.189-1.794 3.964-4.005 3.964-2.212 0-4.006-1.775-4.006-3.964s1.794-3.963 4.006-3.963c2.211 0 4.005 1.774 4.005 3.963zm5.186 27.194c2.212 0 4.005-1.774 4.005-3.963s-1.793-3.964-4.005-3.964c-2.211 0-4.005 1.775-4.005 3.964s1.794 3.963 4.005 3.963zm11.564 19.905c0 2.189-1.793 3.963-4.005 3.963-2.212 0-4.006-1.774-4.006-3.963s1.794-3.964 4.006-3.964 4.005 1.775 4.005 3.964zm58.952-87.071c2.211 0 4.005-1.774 4.005-3.963s-1.794-3.964-4.005-3.964c-2.212 0-4.006 1.775-4.006 3.964s1.794 3.963 4.006 3.963zm-48.007-41.072c0 2.189-1.793 3.964-4.005 3.964-2.212 0-4.005-1.775-4.005-3.964s1.793-3.963 4.005-3.963c2.212 0 4.005 1.774 4.005 3.963zm-210.814 136.9c2.212 0 4.005-1.774 4.005-3.963s-1.793-3.964-4.005-3.964c-2.212 0-4.005 1.775-4.005 3.964s1.793 3.963 4.005 3.963zm-83.502 28.142c0 2.189-1.794 3.964-4.006 3.964s-4.005-1.775-4.005-3.964 1.793-3.963 4.005-3.963c2.212 0 4.006 1.774 4.006 3.963zm-82.471-20.665c2.212 0 4.006-1.775 4.006-3.964s-1.794-3.964-4.006-3.964-4.005 1.775-4.005 3.964 1.793 3.964 4.005 3.964zM222.245 609.654c0 2.189-1.794 3.964-4.006 3.964-2.211 0-4.005-1.775-4.005-3.964s1.794-3.964 4.005-3.964c2.212 0 4.006 1.775 4.006 3.964zm-54.001-24.737c2.212 0 4.005-1.774 4.005-3.964 0-2.189-1.793-3.963-4.005-3.963-2.212 0-4.005 1.774-4.005 3.963 0 2.19 1.793 3.964 4.005 3.964zm-10.265-130.863c0 2.189-1.793 3.964-4.005 3.964-2.212 0-4.005-1.775-4.005-3.964s1.793-3.963 4.005-3.963c2.212 0 4.005 1.774 4.005 3.963zm17.695-5.044c2.212 0 4.005-1.775 4.005-3.964s-1.793-3.964-4.005-3.964c-2.212 0-4.005 1.775-4.005 3.964s1.793 3.964 4.005 3.964zm19.801-9.15c0 2.189-1.793 3.964-4.005 3.964-2.212 0-4.005-1.775-4.005-3.964s1.793-3.964 4.005-3.964c2.212 0 4.005 1.775 4.005 3.964zm15.612 5.692c2.212 0 4.005-1.774 4.005-3.963s-1.793-3.964-4.005-3.964c-2.212 0-4.005 1.775-4.005 3.964s1.793 3.963 4.005 3.963zm3.142 67.807c0 2.189-1.793 3.964-4.005 3.964-2.212 0-4.006-1.775-4.006-3.964s1.794-3.963 4.006-3.963 4.005 1.774 4.005 3.963zm-35.298 27.646c2.212 0 4.005-1.774 4.005-3.963s-1.793-3.964-4.005-3.964c-2.212 0-4.005 1.775-4.005 3.964s1.793 3.963 4.005 3.963zm184.638 197.83c0 2.189-1.793 3.963-4.005 3.963-2.212 0-4.005-1.774-4.005-3.963s1.793-3.964 4.005-3.964c2.212 0 4.005 1.775 4.005 3.964zm4.182 25.553c2.212 0 4.005-1.774 4.005-3.964 0-2.189-1.793-3.963-4.005-3.963-2.212 0-4.005 1.774-4.005 3.963 0 2.19 1.793 3.964 4.005 3.964zm-13.573 13.26c0 2.189-1.793 3.964-4.005 3.964-2.212 0-4.005-1.775-4.005-3.964s1.793-3.963 4.005-3.963c2.212 0 4.005 1.774 4.005 3.963zm195.979 27.581c2.212 0 4.005-1.775 4.005-3.964s-1.793-3.963-4.005-3.963c-2.212 0-4.005 1.774-4.005 3.963s1.793 3.964 4.005 3.964zm-54.585-21.284c0 2.189-1.793 3.964-4.005 3.964-2.212 0-4.005-1.775-4.005-3.964s1.793-3.963 4.005-3.963c2.212 0 4.005 1.774 4.005 3.963zm-90.015 17.542c2.212 0 4.005-1.775 4.005-3.964s-1.793-3.963-4.005-3.963c-2.212 0-4.005 1.774-4.005 3.963s1.793 3.964 4.005 3.964zm-76.465 7.705c0 2.189-1.793 3.964-4.005 3.964-2.212 0-4.005-1.775-4.005-3.964s1.793-3.963 4.005-3.963c2.212 0 4.005 1.774 4.005 3.963zm403.647-40.839c2.212 0 4.005-1.775 4.005-3.964s-1.793-3.963-4.005-3.963c-2.212 0-4.005 1.774-4.005 3.963s1.793 3.964 4.005 3.964zm-2.217-401.154c0 2.189-1.793 3.963-4.005 3.963-2.212 0-4.005-1.774-4.005-3.963s1.793-3.964 4.005-3.964c2.212 0 4.005 1.775 4.005 3.964zm-70.438-105.405c2.212 0 4.005-1.775 4.005-3.964s-1.793-3.963-4.005-3.963c-2.212 0-4.005 1.774-4.005 3.963s1.793 3.964 4.005 3.964zM345.506 189.36c0 2.189-1.793 3.964-4.005 3.964-2.212 0-4.005-1.775-4.005-3.964s1.793-3.964 4.005-3.964c2.212 0 4.005 1.775 4.005 3.964zM229.848 310.889c2.212 0 4.005-1.774 4.005-3.963s-1.793-3.964-4.005-3.964c-2.212 0-4.005 1.775-4.005 3.964s1.793 3.963 4.005 3.963zm59.388-34.901c0 2.189-1.793 3.963-4.005 3.963-2.212 0-4.005-1.774-4.005-3.963s1.793-3.964 4.005-3.964c2.212 0 4.005 1.775 4.005 3.964zm9.393 49.045c2.212 0 4.005-1.775 4.005-3.964s-1.793-3.963-4.005-3.963c-2.212 0-4.005 1.774-4.005 3.963s1.793 3.964 4.005 3.964z" fill="#fff"/></g><path d="M235.103 300.071c47.056-64.108 117.217-107.864 195.969-122.21" stroke="url(#paint37_linear)" stroke-width="3" stroke-linecap="round"/><path d="M210.443 339.617a308.14 308.14 0 0119.856-32.814" stroke="url(#paint38_linear)" stroke-width="3" stroke-linecap="round"/><path d="M187.211 348.258c31.282-69.043 85.877-125.156 154.412-158.703" stroke="url(#paint39_linear)" stroke-width="3" stroke-linecap="round"/><path d="M355.114 183.51a331.647 331.647 0 0183.365-23.904" stroke="url(#paint40_linear)" stroke-width="3" stroke-linecap="round"/><path d="M246.618 356.984c24.715-46.819 62.815-85.404 109.548-110.938" stroke="url(#paint41_linear)" stroke-width="3" stroke-linecap="round"/><path d="M376.072 236.2a273.9 273.9 0 0160.553-18.9" stroke="url(#paint42_linear)" stroke-width="3" stroke-linecap="round"/><path d="M229.145 351.954c20.758-40.538 50.958-75.613 88.112-102.331 37.154-26.717 80.195-44.311 125.574-51.328" stroke="url(#paint43_linear)" stroke-width="3" stroke-linecap="round"/><path d="M229.145 351.954c20.758-40.538 50.958-75.613 88.112-102.331 37.154-26.717 80.195-44.311 125.574-51.328" stroke="url(#paint44_radial)" stroke-width="3" stroke-linecap="round"/><path d="M552.983 207.712c37.585 8.794 72.965 25.073 103.982 47.843 31.017 22.769 57.02 51.553 76.425 84.593" stroke="url(#paint45_linear)" stroke-width="3" stroke-linecap="round"/><path d="M552.983 207.712c37.585 8.794 72.965 25.073 103.982 47.843 31.017 22.769 57.02 51.553 76.425 84.593" stroke="url(#paint46_radial)" stroke-width="3" stroke-linecap="round"/><path d="M564.5 188.682c75.882 19.523 141.282 67.142 182.694 133.016" stroke="url(#paint47_linear)" stroke-width="3" stroke-linecap="round"/><path d="M563.492 173.845a322.028 322.028 0 0182.033 32.221" stroke="url(#paint48_linear)" stroke-width="3" stroke-linecap="round"/><path d="M667.703 219.733c42.999 28.974 78.212 67.881 102.591 113.353" stroke="url(#paint49_linear)" stroke-width="3" stroke-linecap="round"/><path d="M570.456 150.053c49.493 12.121 95.656 34.944 135.17 66.827 39.514 31.883 71.396 72.034 93.356 117.565" stroke="url(#paint50_linear)" stroke-width="3" stroke-linecap="round"/><path d="M570.456 150.053c49.493 12.121 95.656 34.944 135.17 66.827 39.514 31.883 71.396 72.034 93.356 117.565" stroke="url(#paint51_radial)" stroke-width="3" stroke-linecap="round"/><path d="M819.936 445.55a327.624 327.624 0 01-15.777 142.377c-15.702 45.75-41.338 87.543-75.109 122.441" stroke="url(#paint52_linear)" stroke-width="3" stroke-linecap="round"/><path d="M819.936 445.55a327.624 327.624 0 01-15.777 142.377c-15.702 45.75-41.338 87.543-75.109 122.441" stroke="url(#paint53_radial)" stroke-width="3" stroke-linecap="round"/><path d="M819.936 445.55a327.624 327.624 0 01-15.777 142.377c-15.702 45.75-41.338 87.543-75.109 122.441" stroke="url(#paint54_radial)" stroke-width="3" stroke-linecap="round"/><path d="M776.374 459.187c5.851 74.069-17.586 147.496-65.376 204.803" stroke="url(#paint55_linear)" stroke-width="3" stroke-linecap="round"/><path d="M798.444 455.105a305.605 305.605 0 01-4.498 84.879" stroke="url(#paint56_linear)" stroke-width="3" stroke-linecap="round"/><path d="M789.91 557.836c-12.29 47.683-35.918 91.769-68.918 128.584" stroke="url(#paint57_linear)" stroke-width="3" stroke-linecap="round"/><path d="M757.624 450.931a266.307 266.307 0 01-10.884 111.695c-11.523 36.061-30.601 69.313-55.991 97.585" stroke="url(#paint58_linear)" stroke-width="3" stroke-linecap="round"/><path d="M595.317 728.48c-47.601 20.34-100.087 26.783-151.268 18.571" stroke="url(#paint59_linear)" stroke-width="3" stroke-linecap="round"/><path d="M607.397 686.921a241.248 241.248 0 01-75.286 27.642" stroke="url(#paint60_linear)" stroke-width="3" stroke-linecap="round"/><path d="M428.935 744.189a273.741 273.741 0 01-62.664-21.93" stroke="url(#paint61_linear)" stroke-width="3" stroke-linecap="round"/><path d="M600.995 745.308a292.37 292.37 0 01-121.649 22.775c-41.735-1.171-82.72-11.255-120.149-29.561" stroke="url(#paint62_linear)" stroke-width="3" stroke-linecap="round"/><path d="M277.303 662.972c-26.695-30.291-46.383-65.984-57.691-104.585a273.286 273.286 0 01-7.776-118.899" stroke="url(#paint63_linear)" stroke-width="3" stroke-linecap="round"/><path d="M277.303 662.972c-26.695-30.291-46.383-65.984-57.691-104.585a273.286 273.286 0 01-7.776-118.899" stroke="url(#paint64_radial)" stroke-width="3" stroke-linecap="round"/><path d="M263.582 676.98a295.26 295.26 0 01-44.333-65.723" stroke="url(#paint65_linear)" stroke-width="3" stroke-linecap="round"/><path d="M211.719 594.742c-20.821-49.675-27.548-104.03-19.458-157.208" stroke="url(#paint66_linear)" stroke-width="3" stroke-linecap="round"/><path d="M257.013 692.208c-30.996-33.215-54.288-72.725-68.251-115.771a307.45 307.45 0 01-12.59-133.448" stroke="url(#paint67_linear)" stroke-width="3" stroke-linecap="round"/><path d="M248.098 712.443c-36.211-36.772-63.277-81.377-79.056-130.287" stroke="url(#paint68_linear)" stroke-width="3" stroke-linecap="round"/><path d="M164.662 567.405a327.546 327.546 0 01-10.127-115.384" stroke="url(#paint69_linear)" stroke-width="3" stroke-linecap="round"/><path d="M607.113 760.023a308.555 308.555 0 01-119.315 24.087 308.567 308.567 0 01-119.354-23.902" stroke="url(#paint70_linear)" stroke-width="3" stroke-linecap="round"/><path d="M625.165 777.249a331.547 331.547 0 01-76.766 24.229" stroke="url(#paint71_linear)" stroke-width="3" stroke-linecap="round"/><path d="M529.635 804.419c-61.327 7.826-123.64-1.61-179.795-27.224" stroke="url(#paint72_linear)" stroke-width="3" stroke-linecap="round"/><path d="M487.557 846.871c-56.496 0-112.237-12.831-162.933-37.503" stroke="url(#paint73_linear)" stroke-width="3" stroke-linecap="round"/><path d="M811.069 671.806c-21.034 35.019-47.732 66.387-79.03 92.852" stroke="url(#paint74_linear)" stroke-width="3" stroke-linecap="round"/><path d="M707.014 166.021a385.763 385.763 0 0171.905 63.363" stroke="url(#paint75_linear)" stroke-width="3" stroke-linecap="round"/><path d="M674.722 296.328a261.989 261.989 0 0150.463 69.839" stroke="url(#paint76_linear)" stroke-width="3" stroke-linecap="round"/><path d="M250.035 201.832c44.912-37.348 98.173-63.569 155.369-76.487" stroke="url(#paint77_linear)" stroke-width="3" stroke-linecap="round"/><path d="M265.87 370.192a245.825 245.825 0 0133.156-49.02" stroke="url(#paint78_linear)" stroke-width="3" stroke-linecap="round"/><g filter="url(#filter1_d)"><path d="M663.968 763.507c23.957 0 43.378-19.392 43.378-43.314s-19.421-43.314-43.378-43.314-43.378 19.392-43.378 43.314 19.421 43.314 43.378 43.314z" fill="#E08526"/><path d="M663.966 760.096a40.01 40.01 0 01-22.202-6.725 39.926 39.926 0 01-14.718-17.908 39.846 39.846 0 01-2.274-23.055 39.887 39.887 0 0110.937-20.432 40.007 40.007 0 0143.55-8.649 39.954 39.954 0 0117.935 14.696 39.861 39.861 0 01-4.97 50.385 40 40 0 01-28.258 11.688z" fill="url(#paint79_linear)"/><path d="M624.05 721.943c0 .267.045.54.045.808a37.621 37.621 0 001.637 9.067 49.767 49.767 0 0042.792-4.05 49.67 49.67 0 0015.897-15.244 49.586 49.586 0 007.732-20.609 39.97 39.97 0 00-20.461-10.871 40.012 40.012 0 00-23.064 2.301 39.938 39.938 0 00-17.903 14.698 39.86 39.86 0 00-6.72 22.15c-.006.424.009.849.045 1.272v.478z" fill="url(#paint80_linear)"/><path d="M682.794 698.335h-10.157v27.196c0 6.821-3.238 10.684-9.17 10.684a10.742 10.742 0 01-3.964-.675h-.051c-.045-.044-.089-.089-.134-.089-1.351-1.794-2.02-4.352-2.02-7.54v-27.196l-3.008-2.38h-10.126v27.998c0 6.866 2.606 12.656 7.507 16.111l1.752 1.394c.045.044.765.585.765.585 3.123 2.386 7.182 3.774 12.28 3.774 12.497 0 19.328-8.349 19.328-19.478v-27.998l-3.002-2.386z" fill="#AB5526"/><path d="M682.794 698.335v27.998c0 11.129-6.831 19.477-19.327 19.477-12.497 0-19.303-8.335-19.303-19.471v-27.998h10.132v27.19c0 6.821 3.187 10.684 9.171 10.684 5.983 0 9.17-3.863 9.17-10.684v-27.196h10.157z" fill="#E08526"/><path opacity=".6" d="M664.01 754.306a34.185 34.185 0 01-18.976-5.709 34.1 34.1 0 01-12.602-15.274 34.04 34.04 0 01-1.98-19.69 34.064 34.064 0 019.308-17.471 34.155 34.155 0 0117.46-9.363 34.183 34.183 0 0119.727 1.901 34.119 34.119 0 0115.345 12.523 34.048 34.048 0 01-4.159 43.051 34.136 34.136 0 01-11.062 7.412 34.198 34.198 0 01-13.061 2.62zm-.178-65.293a31.163 31.163 0 00-17.276 5.29 31.089 31.089 0 00-11.423 13.981 31.052 31.052 0 006.841 33.851 31.137 31.137 0 0015.958 8.464 31.174 31.174 0 0017.979-1.813 31.118 31.118 0 0013.94-11.48 31.051 31.051 0 00-3.97-39.247 31.14 31.14 0 00-22.049-9.046z" fill="#E08526"/><path d="M664.01 754.306a34.185 34.185 0 01-18.976-5.709 34.1 34.1 0 01-12.602-15.274 34.04 34.04 0 01-1.98-19.69 34.064 34.064 0 019.308-17.471 34.155 34.155 0 0117.46-9.363 34.183 34.183 0 0119.727 1.901 34.119 34.119 0 0115.345 12.523 34.048 34.048 0 01-4.159 43.051 34.136 34.136 0 01-11.062 7.412 34.198 34.198 0 01-13.061 2.62zm-.178-65.293a31.163 31.163 0 00-17.276 5.29 31.089 31.089 0 00-11.423 13.981 31.052 31.052 0 006.841 33.851 31.137 31.137 0 0015.958 8.464 31.174 31.174 0 0017.979-1.813 31.118 31.118 0 0013.94-11.48 31.051 31.051 0 00-3.97-39.247 31.14 31.14 0 00-22.049-9.046z" fill="url(#paint81_radial)"/><path fill-rule="evenodd" clip-rule="evenodd" d="M537.231 148.476l.981-9.678c.066-.652-.61-1.003-1.086-.617l-2.265 1.835-7.866 6.372-2.145 1.738a4.202 4.202 0 00-1.503 2.415 19.236 19.236 0 01-6.354 10.337l-15.315 12.407c-2.691-1.513-6.099-1.347-8.602.68-3.278 2.656-3.774 7.549-1.102 10.874 2.671 3.325 7.539 3.873 10.816 1.218 2.384-1.931 3.293-4.963 2.595-7.791l15.434-12.503c3.267-2.547 7.3-4.017 11.406-4.049.984.001 1.893-.337 2.668-.965l2.145-1.737 7.867-6.373 2.264-1.834c.477-.386.23-1.184-.371-1.197l-9.567-1.132zm-25.006 49.3c-10.123 7.589-24.654 5.395-32.29-4.875-7.636-10.271-5.6-24.884 4.523-32.473 6.995-5.243 16.169-6.013 24.079-2.056a3.135 3.135 0 011.395 4.19 3.049 3.049 0 01-4.146 1.363c-5.741-2.967-12.472-2.381-17.625 1.483-7.424 5.565-8.917 16.281-3.317 23.813 5.599 7.532 16.255 9.141 23.679 3.576 4.97-3.726 7.428-9.931 6.535-16.144-.266-1.643.898-3.291 2.572-3.48 1.629-.251 3.277.937 3.481 2.626 1.299 8.429-2.075 16.872-8.886 21.977zm-43.858 5.231c13.3 16.772 37.511 19.656 54.043 6.437 12.339-9.866 17.384-26.709 12.456-41.933-.533-1.66-2.24-2.578-3.884-2.059a3.058 3.058 0 00-2.006 3.888c4.093 12.814-.059 26.957-10.421 35.243-13.896 11.111-34.216 8.69-45.396-5.408-11.179-14.098-8.978-34.526 4.918-45.637 10.482-8.382 25.247-9.264 36.803-2.22a2.966 2.966 0 004.212-.984c.92-1.431.471-3.356-1.02-4.249-13.818-8.414-31.391-7.37-43.85 2.591-16.531 13.219-19.154 37.559-5.855 54.331z" fill="#F2F2F2"/><path d="M332.022 702.955h-18.903l3.463-.694c4.765-.822 8.354-4.441 9.205-9.047.681-3.619-.51-7.403-3.233-9.952-2.213-2.139-4.951-3.29-8.1-3.29-.681 0-1.446.082-2.127.164-4.766.823-8.51 4.442-9.361 9.048l-.766 4.112-.766-4.112c-.851-4.606-4.596-8.225-9.361-9.048-.681-.164-1.447-.164-2.128-.164-3.063 0-5.889 1.233-8.102 3.372-2.723 2.632-3.918 6.25-3.238 9.952.681 4.527 4.447 8.143 9.213 8.965l3.29.694h-18.73c-2.383 0-4.261 1.692-4.261 3.995v17.551c0 2.303 1.878 4.309 4.261 4.309v27.517c0 2.303 2.122 4.085 4.505 4.085h51.06c2.382 0 4.079-2.006 4.079-4.309V728.81c2.13 0 4.26-1.717 4.26-4.309V706.95c-.085-2.221-1.877-3.995-4.26-3.995zm-1.42 20.11H305.04V708.7h25.562v14.365zm-21.679-28.617l.766-4.113c.34-1.892 1.957-3.454 3.914-3.783.256-.083.596-.083.936-.083 1.277 0 2.468.494 3.404 1.399 1.107 1.069 1.617 2.632 1.362 4.194-.34 1.892-1.957 3.455-3.915 3.784l-6.893 1.234.426-2.632zm-23.826-2.379c-.256-1.481.171-3.139 1.363-4.208.936-.905 2.294-1.392 3.57-1.392.341 0 .427-.005.768.077 1.957.329 3.743 1.898 4.083 3.79l.766 4.115.511 2.629-6.893-1.234c-2.043-.329-3.828-1.886-4.168-3.777zM273.798 708.7h25.562v14.365h-25.562V708.7zm4.26 20.11h21.302v25.856h-21.302V728.81zm48.284 25.856H305.04V728.81h21.302v25.856z" fill="#F2F2F2"/><path fill-rule="evenodd" clip-rule="evenodd" d="M161.292 363.782c3.547-1.093 6.933-1.291 8.768-1.291h40.987c1.834 0 5.221.198 8.768 1.291 3.546 1.093 7.305 3.1 9.796 6.753 2.396 3.463 4.541 8.752 6.444 14.322v-.003l-.635.206.635-.203c1.553 4.451 2.786 10.021 3.63 14.756.841 4.72 1.308 8.683 1.308 9.908 0 4.028-.931 8.451-3.344 11.888-2.437 3.47-6.358 5.887-12.183 5.887-6.443 0-11.376-4.141-16.308-11.869-.825-1.3-2.813-4.991-4.063-7.61l-.003-.007c-.477-1.033-1.479-1.662-2.682-1.662h-23.714c-1.137 0-2.208.636-2.681 1.662l-.003.007c-1.25 2.619-3.237 6.308-4.062 7.609-4.863 7.734-9.868 11.87-16.309 11.87-5.825 0-9.746-2.417-12.183-5.887-2.414-3.437-3.345-7.86-3.345-11.888 0-1.225.468-5.17 1.309-9.881.844-4.727 2.077-10.297 3.629-14.783 1.903-5.57 4.048-10.859 6.445-14.322 2.491-3.653 6.25-5.66 9.796-6.753zm3.085 6.375c-2.607.671-5.308 1.917-6.859 4.19l-.002.003c-1.703 2.461-3.583 6.69-5.63 12.674l-.001.004c-1.412 4.043-2.557 9.187-3.351 13.581-.797 4.412-1.225 7.989-1.225 8.912 0 3.163.789 6.124 2.08 7.956l.003.005c.672.971 1.48 1.664 2.467 2.12.994.458 2.207.694 3.709.694 1.082 0 2.388-.212 4.057-1.36 1.692-1.164 3.773-3.302 6.342-7.202.601-1.084 2.476-4.492 3.63-6.922 1.645-3.47 5.248-5.735 9.246-5.735h23.714c3.921 0 7.6 2.262 9.246 5.735l.006.014c1.085 2.438 2.972 5.863 3.617 6.899 2.465 3.91 4.496 6.05 6.16 7.214 1.639 1.144 2.943 1.357 4.026 1.357 2.9 0 4.862-.916 6.176-2.814l.003-.005c1.292-1.833 2.08-4.724 2.08-7.956 0-.921-.445-4.496-1.252-8.911-.803-4.394-1.949-9.539-3.325-13.584-2.119-6.054-3.999-10.284-5.631-12.676-1.588-2.277-4.292-3.523-6.889-4.193a24.341 24.341 0 00-5.727-.736h-40.914c-.775 0-3.162.069-5.756.736zm10.098 12.153h3.446c1.685 0 3.063 1.328 3.063 2.95 0 1.623-1.378 2.95-3.063 2.95h-3.446v3.319c0 1.622-1.378 2.95-3.062 2.95-1.685 0-3.063-1.328-3.063-2.95v-3.319h-3.446c-1.684 0-3.062-1.327-3.062-2.95 0-1.622 1.378-2.95 3.062-2.95h3.446v-3.318c0-1.623 1.378-2.95 3.063-2.95 1.684 0 3.062 1.327 3.062 2.95v3.318zm30.436 2.951c-2.632 0-4.786 2.074-4.786 4.609s2.154 4.609 4.786 4.609c2.632 0 4.786-2.074 4.786-4.609s-2.034-4.609-4.786-4.609zm2.872-4.61c0-2.535 2.153-4.609 4.785-4.609s4.786 2.074 4.786 4.609-2.154 4.609-4.786 4.609c-2.632 0-4.785-2.074-4.785-4.609zm576.778 55.347c18.823 0 34.082-15.237 34.082-34.033 0-18.795-15.259-34.032-34.082-34.032-18.824 0-34.083 15.237-34.083 34.032 0 18.796 15.259 34.033 34.083 34.033zm0 6.187c22.245 0 40.279-18.007 40.279-40.22 0-22.213-18.034-40.22-40.279-40.22-22.246 0-40.28 18.007-40.28 40.22 0 22.213 18.034 40.22 40.28 40.22z" fill="#F2F2F2"/><path d="M785.51 389.59h-8.085l-4.554 8.102-4.731-8.102h-7.837l8.155 12.793-8.685 13.505h8.014l5.049-8.316 5.084 8.316h8.19l-8.897-12.972 8.297-13.326zm21.337 2.132c-1.703-1.457-4.24-2.132-7.646-2.132h-8.443v26.298h6.16v-8.885h2.247c3.261 0 5.761-.746 7.537-2.345 1.776-1.599 2.645-3.838 2.645-6.788.036-2.665-.797-4.691-2.5-6.148zm-5.798 8.707c-.652.604-1.522.888-2.609.888h-1.522v-6.041h2.102c1.993 0 3.007.888 3.007 2.665 0 1.066-.326 1.884-.978 2.488z" fill="#F2F2F2"/></g><defs><linearGradient id="paint41_linear" x1="353.374" y1="248.952" x2="321.774" y2="269.864" gradientUnits="userSpaceOnUse"><stop stop-color="#fff"/><stop offset="1" stop-color="#fff" stop-opacity="0"/></linearGradient><linearGradient id="paint36_linear" x1="51.938" y1="31.916" x2="1035.37" y2="159.92" gradientUnits="userSpaceOnUse"><stop stop-color="#01E3BE"/><stop offset="1" stop-color="#007FDE"/></linearGradient><linearGradient id="paint1_linear" x1="223.163" y1="321.084" x2="210.854" y2="342.852" gradientUnits="userSpaceOnUse"><stop stop-color="#fff"/><stop offset="1" stop-color="#fff" stop-opacity="0"/></linearGradient><linearGradient id="paint2_linear" x1="220.034" y1="288.819" x2="185.717" y2="343.947" gradientUnits="userSpaceOnUse"><stop stop-color="#fff"/><stop offset="1" stop-color="#fff" stop-opacity="0"/></linearGradient><linearGradient id="paint3_linear" x1="381.265" y1="173.019" x2="355.018" y2="186.06" gradientUnits="userSpaceOnUse"><stop stop-color="#fff"/><stop offset="1" stop-color="#fff" stop-opacity="0"/></linearGradient><linearGradient id="paint4_linear" x1="274.52" y1="312.244" x2="248.999" y2="352.705" gradientUnits="userSpaceOnUse"><stop stop-color="#fff"/><stop offset="1" stop-color="#fff" stop-opacity="0"/></linearGradient><linearGradient id="paint5_linear" x1="404.933" y1="227.384" x2="375.086" y2="238.637" gradientUnits="userSpaceOnUse"><stop stop-color="#fff"/><stop offset="1" stop-color="#fff" stop-opacity="0"/></linearGradient><linearGradient id="paint6_linear" x1="264.249" y1="295.007" x2="225.086" y2="356.813" gradientUnits="userSpaceOnUse"><stop stop-color="#fff"/><stop offset=".983" stop-color="#fff" stop-opacity="0"/></linearGradient><linearGradient id="paint7_linear" x1="613.055" y1="225.616" x2="556.885" y2="208.047" gradientUnits="userSpaceOnUse"><stop stop-color="#fff"/><stop offset="1" stop-color="#fff" stop-opacity="0"/></linearGradient><linearGradient id="paint8_linear" x1="613.059" y1="205.285" x2="569.858" y2="188.183" gradientUnits="userSpaceOnUse"><stop stop-color="#fff"/><stop offset="1" stop-color="#fff" stop-opacity="0"/></linearGradient><linearGradient id="paint9_linear" x1="594.3" y1="182.302" x2="559.513" y2="172.838" gradientUnits="userSpaceOnUse"><stop stop-color="#fff"/><stop offset="1" stop-color="#fff" stop-opacity="0"/></linearGradient><linearGradient id="paint10_linear" x1="702.382" y1="243.295" x2="672.223" y2="221.783" gradientUnits="userSpaceOnUse"><stop stop-color="#fff"/><stop offset="1" stop-color="#fff" stop-opacity="0"/></linearGradient><linearGradient id="paint11_linear" x1="622.436" y1="164.623" x2="574.771" y2="146.617" gradientUnits="userSpaceOnUse"><stop stop-color="#fff"/><stop offset="1" stop-color="#fff" stop-opacity="0"/></linearGradient><linearGradient id="paint12_linear" x1="823.418" y1="486.384" x2="819.043" y2="446.154" gradientUnits="userSpaceOnUse"><stop stop-color="#fff"/><stop offset="1" stop-color="#fff" stop-opacity="0"/></linearGradient><linearGradient id="paint13_linear" x1="778.755" y1="505.831" x2="778.755" y2="462.517" gradientUnits="userSpaceOnUse"><stop stop-color="#fff"/><stop offset="1" stop-color="#fff" stop-opacity="0"/></linearGradient><linearGradient id="paint14_linear" x1="801.088" y1="495.666" x2="801.088" y2="456.33" gradientUnits="userSpaceOnUse"><stop stop-color="#fff"/><stop offset="1" stop-color="#fff" stop-opacity="0"/></linearGradient><linearGradient id="paint15_linear" x1="783.224" y1="584.946" x2="791.546" y2="553.963" gradientUnits="userSpaceOnUse"><stop stop-color="#fff"/><stop offset="1" stop-color="#fff" stop-opacity="0"/></linearGradient><linearGradient id="paint16_linear" x1="760.889" y1="507.598" x2="760.889" y2="456.771" gradientUnits="userSpaceOnUse"><stop stop-color="#fff"/><stop offset="1" stop-color="#fff" stop-opacity="0"/></linearGradient><linearGradient id="paint17_linear" x1="551.424" y1="744.941" x2="592.011" y2="734.125" gradientUnits="userSpaceOnUse"><stop stop-color="#fff"/><stop offset="1" stop-color="#fff" stop-opacity="0"/></linearGradient><linearGradient id="paint18_linear" x1="562.589" y1="702.07" x2="604.895" y2="684.97" gradientUnits="userSpaceOnUse"><stop stop-color="#fff"/><stop offset="1" stop-color="#fff" stop-opacity="0"/></linearGradient><linearGradient id="paint19_linear" x1="397.34" y1="741.406" x2="431.284" y2="741.406" gradientUnits="userSpaceOnUse"><stop stop-color="#fff"/><stop offset="1" stop-color="#fff" stop-opacity="0"/></linearGradient><linearGradient id="paint20_linear" x1="559.465" y1="759.969" x2="603.134" y2="744.66" gradientUnits="userSpaceOnUse"><stop stop-color="#fff"/><stop offset="1" stop-color="#fff" stop-opacity="0"/></linearGradient><linearGradient id="paint21_linear" x1="253.977" y1="630.469" x2="277.797" y2="659.442" gradientUnits="userSpaceOnUse"><stop stop-color="#fff"/><stop offset="1" stop-color="#fff" stop-opacity="0"/></linearGradient><linearGradient id="paint22_linear" x1="240.135" y1="648.59" x2="259.993" y2="671.778" gradientUnits="userSpaceOnUse"><stop stop-color="#fff"/><stop offset="1" stop-color="#fff" stop-opacity="0"/></linearGradient><linearGradient id="paint23_linear" x1="199.492" y1="560.636" x2="210.45" y2="593.412" gradientUnits="userSpaceOnUse"><stop stop-color="#fff"/><stop offset="1" stop-color="#fff" stop-opacity="0"/></linearGradient><linearGradient id="paint24_linear" x1="212.442" y1="636.657" x2="253.465" y2="686.579" gradientUnits="userSpaceOnUse"><stop stop-color="#fff"/><stop offset="1" stop-color="#fff" stop-opacity="0"/></linearGradient><linearGradient id="paint25_linear" x1="215.57" y1="677.319" x2="244.743" y2="706.352" gradientUnits="userSpaceOnUse"><stop stop-color="#fff"/><stop offset="1" stop-color="#fff" stop-opacity="0"/></linearGradient><linearGradient id="paint26_linear" x1="151.703" y1="528.814" x2="156.954" y2="566.397" gradientUnits="userSpaceOnUse"><stop stop-color="#fff"/><stop offset="1" stop-color="#fff" stop-opacity="0"/></linearGradient><linearGradient id="paint27_linear" x1="558.572" y1="776.323" x2="602.709" y2="762.807" gradientUnits="userSpaceOnUse"><stop stop-color="#fff"/><stop offset="1" stop-color="#fff" stop-opacity="0"/></linearGradient><linearGradient id="paint28_linear" x1="599.662" y1="786.045" x2="629.967" y2="775.687" gradientUnits="userSpaceOnUse"><stop stop-color="#fff"/><stop offset="1" stop-color="#fff" stop-opacity="0"/></linearGradient><linearGradient id="paint29_linear" x1="491.134" y1="806.376" x2="535.344" y2="803.217" gradientUnits="userSpaceOnUse"><stop stop-color="#fff"/><stop offset="1" stop-color="#fff" stop-opacity="0"/></linearGradient><linearGradient id="paint30_linear" x1="421.458" y1="848.366" x2="468.799" y2="848.366" gradientUnits="userSpaceOnUse"><stop stop-color="#fff"/><stop offset="1" stop-color="#fff" stop-opacity="0"/></linearGradient><linearGradient id="paint31_linear" x1="789.473" y1="710.025" x2="809.703" y2="675.807" gradientUnits="userSpaceOnUse"><stop stop-color="#fff"/><stop offset="1" stop-color="#fff" stop-opacity="0"/></linearGradient><linearGradient id="paint32_linear" x1="740.792" y1="184.07" x2="709.738" y2="162.552" gradientUnits="userSpaceOnUse"><stop stop-color="#fff"/><stop offset="1" stop-color="#fff" stop-opacity="0"/></linearGradient><linearGradient id="paint33_linear" x1="702.38" y1="333.9" x2="674.16" y2="298.254" gradientUnits="userSpaceOnUse"><stop stop-color="#fff"/><stop offset="1" stop-color="#fff" stop-opacity="0"/></linearGradient><linearGradient id="paint34_linear" x1="337.94" y1="163.297" x2="250.855" y2="213.583" gradientUnits="userSpaceOnUse"><stop stop-color="#fff"/><stop offset=".714" stop-color="#fff" stop-opacity=".286"/><stop offset="1" stop-color="#fff" stop-opacity="0"/></linearGradient><linearGradient id="paint35_linear" x1="276.756" y1="351.138" x2="265.32" y2="370.249" gradientUnits="userSpaceOnUse"><stop stop-color="#fff"/><stop offset="1" stop-color="#fff" stop-opacity="0"/></linearGradient><linearGradient id="paint0_linear" x1="277.651" y1="257.439" x2="241.004" y2="298.04" gradientUnits="userSpaceOnUse"><stop stop-color="#fff"/><stop offset="1" stop-color="#fff" stop-opacity="0"/></linearGradient><linearGradient id="paint37_linear" x1="419.853" y1="184.278" x2="385.776" y2="197.892" gradientUnits="userSpaceOnUse"><stop stop-color="#fff"/><stop offset="1" stop-color="#fff" stop-opacity="0"/></linearGradient><linearGradient id="paint38_linear" x1="229.345" y1="310.251" x2="218.961" y2="325.218" gradientUnits="userSpaceOnUse"><stop stop-color="#fff"/><stop offset="1" stop-color="#fff" stop-opacity="0"/></linearGradient><linearGradient id="paint39_linear" x1="336.005" y1="191.749" x2="298.114" y2="218.073" gradientUnits="userSpaceOnUse"><stop stop-color="#fff"/><stop offset="1" stop-color="#fff" stop-opacity="0"/></linearGradient><linearGradient id="paint80_linear" x1="658.079" y1="734.879" x2="658.079" y2="680.289" gradientUnits="userSpaceOnUse"><stop stop-color="#F6F5C7"/><stop offset="1" stop-color="#F6F5C7" stop-opacity="0"/></linearGradient><linearGradient id="paint40_linear" x1="429.786" y1="162.649" x2="416.454" y2="167.116" gradientUnits="userSpaceOnUse"><stop stop-color="#fff"/><stop offset="1" stop-color="#fff" stop-opacity="0"/></linearGradient><linearGradient id="paint42_linear" x1="429.291" y1="221.028" x2="407.821" y2="226.678" gradientUnits="userSpaceOnUse"><stop stop-color="#fff"/><stop offset="1" stop-color="#fff" stop-opacity="0"/></linearGradient><linearGradient id="paint43_linear" x1="432.427" y1="200.196" x2="406.478" y2="206.3" gradientUnits="userSpaceOnUse"><stop stop-color="#fff"/><stop offset=".983" stop-color="#fff" stop-opacity="0"/></linearGradient><linearGradient id="paint45_linear" x1="733.543" y1="338.975" x2="713.883" y2="310.311" gradientUnits="userSpaceOnUse"><stop stop-color="#fff"/><stop offset="1" stop-color="#fff" stop-opacity="0"/></linearGradient><linearGradient id="paint47_linear" x1="743.517" y1="315.296" x2="726.366" y2="293.134" gradientUnits="userSpaceOnUse"><stop stop-color="#fff"/><stop offset="1" stop-color="#fff" stop-opacity="0"/></linearGradient><linearGradient id="paint48_linear" x1="645.24" y1="205.355" x2="607.21" y2="187.575" gradientUnits="userSpaceOnUse"><stop stop-color="#fff"/><stop offset="1" stop-color="#fff" stop-opacity="0"/></linearGradient><linearGradient id="paint49_linear" x1="767.729" y1="328.827" x2="754.277" y2="303.339" gradientUnits="userSpaceOnUse"><stop stop-color="#fff"/><stop offset="1" stop-color="#fff" stop-opacity="0"/></linearGradient><linearGradient id="paint50_linear" x1="792.511" y1="320.935" x2="769.441" y2="292.79" gradientUnits="userSpaceOnUse"><stop stop-color="#fff"/><stop offset="1" stop-color="#fff" stop-opacity="0"/></linearGradient><linearGradient id="paint52_linear" x1="730.131" y1="707.982" x2="750.897" y2="674.804" gradientUnits="userSpaceOnUse"><stop stop-color="#fff"/><stop offset="1" stop-color="#fff" stop-opacity="0"/></linearGradient><linearGradient id="paint55_linear" x1="710.474" y1="660.623" x2="730.168" y2="636.741" gradientUnits="userSpaceOnUse"><stop stop-color="#fff"/><stop offset="1" stop-color="#fff" stop-opacity="0"/></linearGradient><linearGradient id="paint56_linear" x1="794.707" y1="539.888" x2="797.258" y2="514.543" gradientUnits="userSpaceOnUse"><stop stop-color="#fff"/><stop offset="1" stop-color="#fff" stop-opacity="0"/></linearGradient><linearGradient id="paint57_linear" x1="723.01" y1="683.739" x2="738.423" y2="654.289" gradientUnits="userSpaceOnUse"><stop stop-color="#fff"/><stop offset="1" stop-color="#fff" stop-opacity="0"/></linearGradient><linearGradient id="paint58_linear" x1="693.381" y1="657.804" x2="710.755" y2="624.39" gradientUnits="userSpaceOnUse"><stop stop-color="#fff"/><stop offset="1" stop-color="#fff" stop-opacity="0"/></linearGradient><linearGradient id="paint59_linear" x1="446.2" y1="743.038" x2="476.145" y2="742.161" gradientUnits="userSpaceOnUse"><stop stop-color="#fff"/><stop offset="1" stop-color="#fff" stop-opacity="0"/></linearGradient><linearGradient id="paint60_linear" x1="531.263" y1="710.826" x2="547.263" y2="703.398" gradientUnits="userSpaceOnUse"><stop stop-color="#fff"/><stop offset="1" stop-color="#fff" stop-opacity="0"/></linearGradient><linearGradient id="paint61_linear" x1="366.777" y1="722.422" x2="389.729" y2="730.299" gradientUnits="userSpaceOnUse"><stop stop-color="#fff"/><stop offset="1" stop-color="#fff" stop-opacity="0"/></linearGradient><linearGradient id="paint62_linear" x1="361.137" y1="736.596" x2="399.26" y2="748.415" gradientUnits="userSpaceOnUse"><stop stop-color="#fff"/><stop offset="1" stop-color="#fff" stop-opacity="0"/></linearGradient><linearGradient id="paint63_linear" x1="211.073" y1="441.235" x2="211.073" y2="481.528" gradientUnits="userSpaceOnUse"><stop stop-color="#fff"/><stop offset="1" stop-color="#fff" stop-opacity="0"/></linearGradient><linearGradient id="paint65_linear" x1="217.303" y1="608.214" x2="234.451" y2="641.633" gradientUnits="userSpaceOnUse"><stop stop-color="#fff"/><stop offset="1" stop-color="#fff" stop-opacity="0"/></linearGradient><linearGradient id="paint66_linear" x1="193.02" y1="448.013" x2="187.546" y2="481.546" gradientUnits="userSpaceOnUse"><stop stop-color="#fff"/><stop offset="1" stop-color="#fff" stop-opacity="0"/></linearGradient><linearGradient id="paint67_linear" x1="175.584" y1="446.164" x2="172.314" y2="475.131" gradientUnits="userSpaceOnUse"><stop stop-color="#fff"/><stop offset="1" stop-color="#fff" stop-opacity="0"/></linearGradient><linearGradient id="paint68_linear" x1="167.491" y1="580.487" x2="177.88" y2="610.746" gradientUnits="userSpaceOnUse"><stop stop-color="#fff"/><stop offset="1" stop-color="#fff" stop-opacity="0"/></linearGradient><linearGradient id="paint69_linear" x1="155.661" y1="453.558" x2="151.784" y2="489.304" gradientUnits="userSpaceOnUse"><stop stop-color="#fff"/><stop offset="1" stop-color="#fff" stop-opacity="0"/></linearGradient><linearGradient id="paint70_linear" x1="373.289" y1="761.506" x2="387.576" y2="766.756" gradientUnits="userSpaceOnUse"><stop stop-color="#fff"/><stop offset="1" stop-color="#fff" stop-opacity="0"/></linearGradient><linearGradient id="paint71_linear" x1="550.797" y1="799.731" x2="576.792" y2="791.851" gradientUnits="userSpaceOnUse"><stop stop-color="#fff"/><stop offset="1" stop-color="#fff" stop-opacity="0"/></linearGradient><linearGradient id="paint72_linear" x1="351.156" y1="778.256" x2="373.652" y2="787.874" gradientUnits="userSpaceOnUse"><stop stop-color="#fff"/><stop offset="1" stop-color="#fff" stop-opacity="0"/></linearGradient><linearGradient id="paint73_linear" x1="326.881" y1="809.082" x2="366.578" y2="827.886" gradientUnits="userSpaceOnUse"><stop stop-color="#fff"/><stop offset="1" stop-color="#fff" stop-opacity="0"/></linearGradient><linearGradient id="paint74_linear" x1="736.111" y1="761.261" x2="758.935" y2="737.343" gradientUnits="userSpaceOnUse"><stop stop-color="#fff"/><stop offset="1" stop-color="#fff" stop-opacity="0"/></linearGradient><linearGradient id="paint75_linear" x1="778.839" y1="227.907" x2="750.674" y2="197.169" gradientUnits="userSpaceOnUse"><stop stop-color="#fff"/><stop offset="1" stop-color="#fff" stop-opacity="0"/></linearGradient><linearGradient id="paint76_linear" x1="723.859" y1="363.219" x2="706.756" y2="332.621" gradientUnits="userSpaceOnUse"><stop stop-color="#fff"/><stop offset="1" stop-color="#fff" stop-opacity="0"/></linearGradient><linearGradient id="paint77_linear" x1="398.39" y1="127.651" x2="370.229" y2="136.468" gradientUnits="userSpaceOnUse"><stop stop-color="#fff"/><stop offset="1" stop-color="#fff" stop-opacity="0"/></linearGradient><linearGradient id="paint78_linear" x1="294.703" y1="328.291" x2="287.867" y2="339.657" gradientUnits="userSpaceOnUse"><stop stop-color="#fff"/><stop offset="1" stop-color="#fff" stop-opacity="0"/></linearGradient><linearGradient id="paint79_linear" x1="624.004" y1="720.192" x2="703.928" y2="720.192" gradientUnits="userSpaceOnUse"><stop stop-color="#FDED07"/><stop offset="1" stop-color="#F8B819"/></linearGradient><radialGradient id="paint53_radial" cx="0" cy="0" r="1" gradientUnits="userSpaceOnUse" gradientTransform="matrix(6.55722 -17.03388 17.16677 6.60838 793.41 616.734)"><stop stop-color="#fff" stop-opacity="0"/><stop offset=".005" stop-color="#fff"/><stop offset="1" stop-color="#fff" stop-opacity="0"/></radialGradient><radialGradient id="paint54_radial" cx="0" cy="0" r="1" gradientUnits="userSpaceOnUse" gradientTransform="matrix(.70418 -16.89984 17.07668 .71155 820.08 520.414)"><stop stop-color="#fff" stop-opacity="0"/><stop offset=".005" stop-color="#fff"/><stop offset="1" stop-color="#fff" stop-opacity="0"/></radialGradient><radialGradient id="paint46_radial" cx="0" cy="0" r="1" gradientUnits="userSpaceOnUse" gradientTransform="matrix(-13.82476 -11.2776 11.2546 -13.79655 660.832 257.989)"><stop stop-color="#fff" stop-opacity="0"/><stop stop-color="#fff"/><stop offset="1" stop-color="#fff" stop-opacity="0"/></radialGradient><radialGradient id="paint44_radial" cx="0" cy="0" r="1" gradientUnits="userSpaceOnUse" gradientTransform="matrix(-16.20584 18.31802 -18.34236 -16.22738 280.899 279.333)"><stop stop-color="#fff" stop-opacity="0"/><stop offset="0" stop-color="#fff"/><stop offset=".529" stop-color="#fff" stop-opacity="0"/></radialGradient><radialGradient id="paint51_radial" cx="0" cy="0" r="1" gradientUnits="userSpaceOnUse" gradientTransform="rotate(-140.794 386.31 -18.988) scale(21.6325 21.5883)"><stop stop-color="red" stop-opacity="0"/><stop stop-color="#fff"/><stop offset="1" stop-color="#fff" stop-opacity="0"/></radialGradient><radialGradient id="paint64_radial" cx="0" cy="0" r="1" gradientUnits="userSpaceOnUse" gradientTransform="matrix(21.53388 39.35037 -39.57398 21.65625 211.33 518.342)"><stop stop-color="#fff" stop-opacity="0"/><stop offset="0" stop-color="#fff"/><stop offset=".529" stop-color="#fff" stop-opacity="0"/></radialGradient><radialGradient id="paint81_radial" cx="0" cy="0" r="1" gradientUnits="userSpaceOnUse" gradientTransform="matrix(66.0324 0 0 65.935 692.26 744.265)"><stop stop-color="#FFF0B3"/><stop offset=".74" stop-color="#FFF0B3" stop-opacity="0"/></radialGradient><filter id="filter1_d" x=".477" y=".822" width="961.658" height="896.872" filterUnits="userSpaceOnUse" color-interpolation-filters="sRGB"><feFlood flood-opacity="0" result="BackgroundImageFix"/><feColorMatrix in="SourceAlpha" values="0 0 0 0 0 0 0 0 0 0 0 0 0 0 0 0 0 0 127 0"/><feOffset/><feGaussianBlur stdDeviation="64"/><feColorMatrix values="0 0 0 0 0.0392157 0 0 0 0 0.0862745 0 0 0 0 0.14902 0 0 0 1 0"/><feBlend in2="BackgroundImageFix" result="effect1_dropShadow"/><feBlend in="SourceGraphic" in2="effect1_dropShadow" result="shape"/></filter><filter id="filter0_ddd" x="145.983" y="116.882" width="681.419" height="700.26" filterUnits="userSpaceOnUse" color-interpolation-filters="sRGB"><feFlood flood-opacity="0" result="BackgroundImageFix"/><feColorMatrix in="SourceAlpha" values="0 0 0 0 0 0 0 0 0 0 0 0 0 0 0 0 0 0 127 0"/><feOffset/><feGaussianBlur stdDeviation="1.993"/><feColorMatrix values="0 0 0 0 1 0 0 0 0 1 0 0 0 0 1 0 0 0 0.5 0"/><feBlend in2="BackgroundImageFix" result="effect1_dropShadow"/><feColorMatrix in="SourceAlpha" values="0 0 0 0 0 0 0 0 0 0 0 0 0 0 0 0 0 0 127 0"/><feOffset/><feGaussianBlur stdDeviation="1.246"/><feColorMatrix values="0 0 0 0 1 0 0 0 0 1 0 0 0 0 1 0 0 0 0.5 0"/><feBlend in2="effect1_dropShadow" result="effect2_dropShadow"/><feColorMatrix in="SourceAlpha" values="0 0 0 0 0 0 0 0 0 0 0 0 0 0 0 0 0 0 127 0"/><feOffset/><feGaussianBlur stdDeviation=".498"/><feColorMatrix values="0 0 0 0 1 0 0 0 0 1 0 0 0 0 1 0 0 0 0.5 0"/><feBlend in2="effect2_dropShadow" result="effect3_dropShadow"/><feBlend in="SourceGraphic" in2="effect3_dropShadow" result="shape"/></filter></defs></svg>