<svg width="157" height="57" viewBox="0 0 157 57" fill="none" xmlns="http://www.w3.org/2000/svg">
<path d="M6.93953 0.5H150.06C153.569 0.5 156.5 3.67413 156.5 7.70198V49.298C156.5 53.3259 153.569 56.5 150.06 56.5H6.93953C3.43083 56.5 0.5 53.3259 0.5 49.298V7.70198C0.5 3.67413 3.43083 0.5 6.93953 0.5Z" fill="black" stroke="#A8A8A8"/>
<path d="M47.9821 28.4778C47.5522 7.47624 19.2731 -0.349198 8.38955 19.3294C8.87015 19.6731 9.53582 20.1376 10.0164 20.4813C9.21016 22.143 8.64009 23.9069 8.32239 25.7228C8.10787 26.8907 7.99997 28.0754 8 29.2624C8 40.1658 16.9552 49 28 49C39.0448 49 48 40.1658 48 29.2683C48 29.0028 48 28.7403 47.9821 28.4778ZM12.9373 32.0026C12.6746 34.1396 12.8388 34.8048 12.8373 35.0614L12.3567 35.234C12.1746 34.883 11.7119 33.6441 11.509 31.979C10.9851 25.624 15.3761 19.8972 22.0567 18.8309C28.1836 17.946 34.0418 21.6965 35.4149 26.9513L34.9328 27.1239C34.5279 26.591 34.085 26.0872 33.6075 25.6166C26.2179 18.2941 14.6045 21.6538 12.9373 32.0011V32.0026ZM31.9672 35.5569C31.4434 36.3065 30.7359 36.9126 29.9108 37.3187C29.0856 37.7247 28.1698 37.9174 27.2488 37.8787C26.3278 37.84 25.4318 37.5712 24.6445 37.0974C23.8572 36.6236 23.2043 35.9604 22.7469 35.1696C22.2894 34.3788 22.0424 33.4863 22.0288 32.5755C22.0151 31.6648 22.2354 30.7655 22.6691 29.9617C23.1027 29.1579 23.7355 28.4758 24.5083 27.9793C25.2811 27.4828 26.1686 27.188 27.0881 27.1224C27.978 27.0753 28.8617 27.2947 29.6234 27.7518C30.3852 28.209 30.9897 28.8826 31.3578 29.6846C31.7259 30.4867 31.8405 31.3798 31.6867 32.2473C31.5328 33.1147 31.1177 33.9161 30.4955 34.5467L31.9672 35.5569ZM43.3403 35.7649C40.4552 42.2276 34.5164 45.6094 28.1746 45.5312C16.009 44.9413 12.4716 31.0779 20.6 26.0709L20.9582 26.4233C20.8194 26.6033 20.3478 26.9808 19.5881 28.4483C18.703 30.2313 18.4328 32.0085 18.5433 33.1205C19.1761 42.8102 32.9149 44.7805 37.6478 35.2015C43.6716 22.0623 27.7015 8.71951 13.5224 18.9135L13.1955 18.5905C16.9269 12.8181 24.2104 10.2342 31.1687 11.9538C41.8104 14.5893 47.5239 25.5399 43.3418 35.7634L43.3403 35.7649Z" fill="white"/>
<path d="M59.812 8.2H62.654C63.4007 8.2 64.0773 8.32133 64.684 8.564C65.3 8.79733 65.8227 9.12867 66.252 9.558C66.6907 9.98733 67.0267 10.5053 67.26 11.112C67.4933 11.7093 67.61 12.372 67.61 13.1C67.61 13.828 67.4933 14.4953 67.26 15.102C67.0267 15.6993 66.6907 16.2127 66.252 16.642C65.8227 17.0713 65.3 17.4073 64.684 17.65C64.0773 17.8833 63.4007 18 62.654 18H59.812V8.2ZM62.654 16.796C63.2233 16.796 63.732 16.7073 64.18 16.53C64.6373 16.3527 65.0247 16.1053 65.342 15.788C65.6593 15.4613 65.902 15.074 66.07 14.626C66.238 14.1687 66.322 13.66 66.322 13.1C66.322 12.54 66.238 12.036 66.07 11.588C65.902 11.1307 65.6593 10.7433 65.342 10.426C65.0247 10.0993 64.6373 9.84733 64.18 9.67C63.732 9.49267 63.2233 9.404 62.654 9.404H61.1V16.796H62.654ZM72.1948 18.168C71.7001 18.168 71.2381 18.0793 70.8088 17.902C70.3794 17.7153 70.0061 17.4633 69.6888 17.146C69.3714 16.8193 69.1194 16.4367 68.9328 15.998C68.7554 15.5593 68.6668 15.0833 68.6668 14.57C68.6668 14.0567 68.7554 13.5807 68.9328 13.142C69.1194 12.7033 69.3714 12.3253 69.6888 12.008C70.0061 11.6813 70.3794 11.4293 70.8088 11.252C71.2381 11.0653 71.7001 10.972 72.1948 10.972C72.6894 10.972 73.1514 11.0653 73.5808 11.252C74.0101 11.4293 74.3834 11.6813 74.7008 12.008C75.0181 12.3253 75.2654 12.7033 75.4428 13.142C75.6294 13.5807 75.7228 14.0567 75.7228 14.57C75.7228 15.0833 75.6294 15.5593 75.4428 15.998C75.2654 16.4367 75.0181 16.8193 74.7008 17.146C74.3834 17.4633 74.0101 17.7153 73.5808 17.902C73.1514 18.0793 72.6894 18.168 72.1948 18.168ZM72.1948 17.048C72.5028 17.048 72.7968 16.992 73.0768 16.88C73.3661 16.768 73.6181 16.6093 73.8328 16.404C74.0474 16.1893 74.2201 15.928 74.3508 15.62C74.4814 15.312 74.5468 14.962 74.5468 14.57C74.5468 14.178 74.4814 13.828 74.3508 13.52C74.2201 13.212 74.0474 12.9553 73.8328 12.75C73.6181 12.5353 73.3661 12.372 73.0768 12.26C72.7968 12.148 72.5028 12.092 72.1948 12.092C71.8868 12.092 71.5881 12.148 71.2988 12.26C71.0188 12.372 70.7714 12.5353 70.5568 12.75C70.3421 12.9553 70.1694 13.212 70.0388 13.52C69.9081 13.828 69.8428 14.178 69.8428 14.57C69.8428 14.962 69.9081 15.312 70.0388 15.62C70.1694 15.928 70.3421 16.1893 70.5568 16.404C70.7714 16.6093 71.0188 16.768 71.2988 16.88C71.5881 16.992 71.8868 17.048 72.1948 17.048ZM76.3692 11.14H77.5452L79.0992 16.432H79.1832L80.6812 11.14H81.9132L83.4112 16.432H83.4952L85.0492 11.14H86.2252L84.0972 18H82.7532L81.3392 12.876H81.2552L79.8412 18H78.4972L76.3692 11.14ZM87.2925 11.14H88.3845V12.176H88.4685C88.6271 11.8493 88.8885 11.5693 89.2525 11.336C89.6258 11.0933 90.0785 10.972 90.6105 10.972C91.3478 10.972 91.9265 11.2193 92.3465 11.714C92.7758 12.1993 92.9905 12.8667 92.9905 13.716V18H91.8145V13.912C91.8145 13.3333 91.6791 12.8853 91.4085 12.568C91.1471 12.2507 90.7505 12.092 90.2185 12.092C89.9571 12.092 89.7191 12.1433 89.5045 12.246C89.2898 12.3487 89.1031 12.4933 88.9445 12.68C88.7951 12.8573 88.6785 13.072 88.5945 13.324C88.5105 13.5667 88.4685 13.8373 88.4685 14.136V18H87.2925V11.14ZM94.6206 8.2H95.7966V18H94.6206V8.2ZM100.646 18.168C100.151 18.168 99.6893 18.0793 99.26 17.902C98.8306 17.7153 98.4573 17.4633 98.14 17.146C97.8226 16.8193 97.5706 16.4367 97.384 15.998C97.2066 15.5593 97.118 15.0833 97.118 14.57C97.118 14.0567 97.2066 13.5807 97.384 13.142C97.5706 12.7033 97.8226 12.3253 98.14 12.008C98.4573 11.6813 98.8306 11.4293 99.26 11.252C99.6893 11.0653 100.151 10.972 100.646 10.972C101.141 10.972 101.603 11.0653 102.032 11.252C102.461 11.4293 102.835 11.6813 103.152 12.008C103.469 12.3253 103.717 12.7033 103.894 13.142C104.081 13.5807 104.174 14.0567 104.174 14.57C104.174 15.0833 104.081 15.5593 103.894 15.998C103.717 16.4367 103.469 16.8193 103.152 17.146C102.835 17.4633 102.461 17.7153 102.032 17.902C101.603 18.0793 101.141 18.168 100.646 18.168ZM100.646 17.048C100.954 17.048 101.248 16.992 101.528 16.88C101.817 16.768 102.069 16.6093 102.284 16.404C102.499 16.1893 102.671 15.928 102.802 15.62C102.933 15.312 102.998 14.962 102.998 14.57C102.998 14.178 102.933 13.828 102.802 13.52C102.671 13.212 102.499 12.9553 102.284 12.75C102.069 12.5353 101.817 12.372 101.528 12.26C101.248 12.148 100.954 12.092 100.646 12.092C100.338 12.092 100.039 12.148 99.75 12.26C99.47 12.372 99.2226 12.5353 99.008 12.75C98.7933 12.9553 98.6206 13.212 98.49 13.52C98.3593 13.828 98.294 14.178 98.294 14.57C98.294 14.962 98.3593 15.312 98.49 15.62C98.6206 15.928 98.7933 16.1893 99.008 16.404C99.2226 16.6093 99.47 16.768 99.75 16.88C100.039 16.992 100.338 17.048 100.646 17.048ZM108.514 18.168C108.075 18.168 107.66 18.0793 107.268 17.902C106.885 17.7247 106.544 17.4773 106.246 17.16C105.956 16.8427 105.723 16.4647 105.546 16.026C105.378 15.5873 105.294 15.102 105.294 14.57C105.294 14.038 105.378 13.5527 105.546 13.114C105.723 12.666 105.956 12.2833 106.246 11.966C106.544 11.6487 106.894 11.406 107.296 11.238C107.697 11.0607 108.122 10.972 108.57 10.972C109.074 10.972 109.531 11.0747 109.942 11.28C110.352 11.476 110.66 11.7373 110.866 12.064V11.14H112.042V18H110.95V16.992H110.866C110.679 17.3187 110.376 17.5987 109.956 17.832C109.536 18.056 109.055 18.168 108.514 18.168ZM108.682 17.048C109.008 17.048 109.307 16.992 109.578 16.88C109.858 16.7587 110.096 16.5907 110.292 16.376C110.497 16.152 110.656 15.8907 110.768 15.592C110.889 15.284 110.95 14.9433 110.95 14.57C110.95 14.1967 110.889 13.8607 110.768 13.562C110.656 13.254 110.497 12.9927 110.292 12.778C110.096 12.554 109.862 12.386 109.592 12.274C109.321 12.1527 109.027 12.092 108.71 12.092C108.392 12.092 108.094 12.1527 107.814 12.274C107.543 12.386 107.305 12.554 107.1 12.778C106.904 12.9927 106.75 13.254 106.638 13.562C106.526 13.8607 106.47 14.1967 106.47 14.57C106.47 14.9433 106.526 15.284 106.638 15.592C106.75 15.8907 106.904 16.152 107.1 16.376C107.296 16.5907 107.529 16.7587 107.8 16.88C108.07 16.992 108.364 17.048 108.682 17.048ZM116.526 18.168C116.087 18.168 115.672 18.0793 115.28 17.902C114.888 17.7247 114.543 17.4773 114.244 17.16C113.945 16.8427 113.707 16.4647 113.53 16.026C113.362 15.5873 113.278 15.102 113.278 14.57C113.278 14.038 113.362 13.5527 113.53 13.114C113.698 12.666 113.927 12.2833 114.216 11.966C114.505 11.6487 114.846 11.406 115.238 11.238C115.639 11.0607 116.064 10.972 116.512 10.972C116.745 10.972 116.979 11 117.212 11.056C117.455 11.112 117.683 11.1913 117.898 11.294C118.122 11.3873 118.318 11.504 118.486 11.644C118.663 11.7747 118.803 11.9193 118.906 12.078V8.2H120.082V18H118.99V16.992H118.906C118.719 17.3187 118.411 17.5987 117.982 17.832C117.553 18.056 117.067 18.168 116.526 18.168ZM116.694 17.048C117.021 17.048 117.319 16.992 117.59 16.88C117.87 16.7587 118.113 16.5907 118.318 16.376C118.533 16.152 118.696 15.8907 118.808 15.592C118.929 15.284 118.99 14.9433 118.99 14.57C118.99 14.1967 118.929 13.8607 118.808 13.562C118.696 13.254 118.537 12.9927 118.332 12.778C118.127 12.554 117.884 12.386 117.604 12.274C117.333 12.1527 117.039 12.092 116.722 12.092C116.405 12.092 116.106 12.1527 115.826 12.274C115.546 12.386 115.303 12.554 115.098 12.778C114.902 12.9927 114.743 13.254 114.622 13.562C114.51 13.8607 114.454 14.1967 114.454 14.57C114.454 14.9433 114.51 15.284 114.622 15.592C114.743 15.8907 114.902 16.152 115.098 16.376C115.303 16.5907 115.541 16.7587 115.812 16.88C116.083 16.992 116.377 17.048 116.694 17.048ZM127.594 9.166C127.286 9.166 127.034 9.25 126.838 9.418C126.651 9.586 126.558 9.88 126.558 10.3V11.14H128.154V12.148H126.558V18H125.382V12.148H124.542V11.14H125.382V10.3C125.382 9.936 125.433 9.614 125.536 9.334C125.648 9.054 125.792 8.816 125.97 8.62C126.156 8.424 126.371 8.27933 126.614 8.186C126.866 8.08333 127.132 8.032 127.412 8.032C127.598 8.032 127.757 8.05067 127.888 8.088C128.028 8.116 128.14 8.15333 128.224 8.2V9.32C128.018 9.21733 127.808 9.166 127.594 9.166ZM132.392 18.168C131.897 18.168 131.435 18.0793 131.006 17.902C130.577 17.7153 130.203 17.4633 129.886 17.146C129.569 16.8193 129.317 16.4367 129.13 15.998C128.953 15.5593 128.864 15.0833 128.864 14.57C128.864 14.0567 128.953 13.5807 129.13 13.142C129.317 12.7033 129.569 12.3253 129.886 12.008C130.203 11.6813 130.577 11.4293 131.006 11.252C131.435 11.0653 131.897 10.972 132.392 10.972C132.887 10.972 133.349 11.0653 133.778 11.252C134.207 11.4293 134.581 11.6813 134.898 12.008C135.215 12.3253 135.463 12.7033 135.64 13.142C135.827 13.5807 135.92 14.0567 135.92 14.57C135.92 15.0833 135.827 15.5593 135.64 15.998C135.463 16.4367 135.215 16.8193 134.898 17.146C134.581 17.4633 134.207 17.7153 133.778 17.902C133.349 18.0793 132.887 18.168 132.392 18.168ZM132.392 17.048C132.7 17.048 132.994 16.992 133.274 16.88C133.563 16.768 133.815 16.6093 134.03 16.404C134.245 16.1893 134.417 15.928 134.548 15.62C134.679 15.312 134.744 14.962 134.744 14.57C134.744 14.178 134.679 13.828 134.548 13.52C134.417 13.212 134.245 12.9553 134.03 12.75C133.815 12.5353 133.563 12.372 133.274 12.26C132.994 12.148 132.7 12.092 132.392 12.092C132.084 12.092 131.785 12.148 131.496 12.26C131.216 12.372 130.969 12.5353 130.754 12.75C130.539 12.9553 130.367 13.212 130.236 13.52C130.105 13.828 130.04 14.178 130.04 14.57C130.04 14.962 130.105 15.312 130.236 15.62C130.367 15.928 130.539 16.1893 130.754 16.404C130.969 16.6093 131.216 16.768 131.496 16.88C131.785 16.992 132.084 17.048 132.392 17.048ZM137.208 11.14H138.3V12.134H138.384C138.543 11.8073 138.781 11.532 139.098 11.308C139.416 11.084 139.854 10.972 140.414 10.972C140.704 10.972 140.942 11.0187 141.128 11.112L140.862 12.246C140.732 12.19 140.62 12.1527 140.526 12.134C140.433 12.106 140.307 12.092 140.148 12.092C139.887 12.092 139.644 12.148 139.42 12.26C139.206 12.372 139.019 12.526 138.86 12.722C138.711 12.918 138.594 13.1467 138.51 13.408C138.426 13.66 138.384 13.9353 138.384 14.234V18H137.208V11.14ZM60.5 25H67.82C68.9 25 69.86 25.16 70.7 25.48C71.56 25.78 72.28 26.22 72.86 26.8C73.46 27.36 73.92 28.04 74.24 28.84C74.56 29.62 74.72 30.48 74.72 31.42C74.72 32.36 74.56 33.23 74.24 34.03C73.92 34.81 73.46 35.49 72.86 36.07C72.28 36.63 71.56 37.07 70.7 37.39C69.86 37.69 68.9 37.84 67.82 37.84H65.06V46H60.5V25ZM67.79 33.82C68.53 33.82 69.13 33.61 69.59 33.19C70.05 32.77 70.28 32.18 70.28 31.42C70.28 30.66 70.05 30.07 69.59 29.65C69.13 29.23 68.53 29.02 67.79 29.02H65.06V33.82H67.79ZM87.4327 46.36C85.9127 46.36 84.5027 46.1 83.2027 45.58C81.9027 45.04 80.7727 44.29 79.8127 43.33C78.8527 42.37 78.1027 41.23 77.5627 39.91C77.0227 38.57 76.7527 37.1 76.7527 35.5C76.7527 33.9 77.0127 32.44 77.5327 31.12C78.0727 29.78 78.8127 28.63 79.7527 27.67C80.7127 26.71 81.8427 25.97 83.1427 25.45C84.4427 24.91 85.8727 24.64 87.4327 24.64C89.5327 24.64 91.3427 25.07 92.8627 25.93C94.3827 26.79 95.5027 28.03 96.2227 29.65L92.5327 32.2C92.0127 31.18 91.3227 30.39 90.4627 29.83C89.6227 29.25 88.6027 28.96 87.4027 28.96C86.5027 28.96 85.6727 29.13 84.9127 29.47C84.1727 29.79 83.5427 30.24 83.0227 30.82C82.5027 31.4 82.0927 32.09 81.7927 32.89C81.5127 33.69 81.3727 34.56 81.3727 35.5C81.3727 36.44 81.5127 37.31 81.7927 38.11C82.0927 38.89 82.5027 39.57 83.0227 40.15C83.5427 40.73 84.1727 41.18 84.9127 41.5C85.6727 41.82 86.5027 41.98 87.4027 41.98C88.6427 41.98 89.6627 41.7 90.4627 41.14C91.2827 40.58 91.9627 39.77 92.5027 38.71L96.2827 41.29C95.4427 42.91 94.2927 44.17 92.8327 45.07C91.3727 45.95 89.5727 46.38 87.4327 46.36Z" fill="white"/>
</svg>
