<svg width="92" height="27" fill="none" xmlns="http://www.w3.org/2000/svg"><path d="M28.228 5.329c0 .614-.143 1.088-.427 1.42-.284.33-.69.497-1.219.497-.527 0-.934-.165-1.219-.498-.284-.331-.427-.805-.427-1.42V.446H23.11v5.028c0 .67.135 1.271.403 1.803.268.53.665.946 1.189 1.245.523.299 1.152.45 1.88.45.729 0 1.355-.151 1.88-.45.523-.3.92-.715 1.188-1.245.268-.53.403-1.132.403-1.803V.445h-1.828v4.884h.004zm17.359 2.395c.26-.408.39-.89.39-1.45 0-.622-.174-1.12-.527-1.491-.353-.372-.905-.689-1.658-.952-.64-.223-1.088-.425-1.34-.604s-.379-.39-.379-.628a.63.63 0 01.27-.526c.18-.137.411-.203.691-.203.625 0 1.082.323 1.37.97l1.455-1.006A2.42 2.42 0 0044.795.69C44.318.43 43.755.3 43.107.3a3.2 3.2 0 00-1.418.305 2.354 2.354 0 00-.974.845c-.231.36-.348.763-.348 1.209 0 .646.193 1.16.582 1.538.39.38.947.7 1.677.963.584.207.985.404 1.2.586.216.183.325.404.325.659a.768.768 0 01-.289.628c-.19.157-.44.233-.745.233-.352 0-.68-.112-.985-.335a1.8 1.8 0 01-.649-.885l-1.452 1.08c.231.59.612 1.046 1.142 1.365.528.319 1.16.48 1.898.48.536 0 1.025-.107 1.466-.318.44-.212.79-.522 1.05-.93zM68.798.445h-6.55v1.722h2.368v6.659h1.827V2.167h2.355V.445zM35.439 8.509a2.42 2.42 0 001.04-.886c.243-.379.366-.809.366-1.286 0-1.006-.501-1.697-1.503-2.072.345-.145.615-.365.812-.665.196-.299.294-.676.294-1.132 0-.622-.243-1.116-.733-1.48-.49-.363-1.142-.543-1.958-.543h-2.8v8.381h2.907c.602 0 1.126-.106 1.575-.317zm-2.655-6.46h.96c.289 0 .518.078.692.232.17.157.258.374.258.653s-.087.498-.258.652c-.174.157-.403.233-.691.233h-.961V2.05zm0 5.171V5.112h1.009c.393 0 .695.09.907.27.211.178.318.44.318.784 0 .343-.107.604-.318.785-.212.179-.516.269-.907.269h-1.01zm24.839-1.735h3.568V4.096h-3.568V2.167h3.928V.445h-5.756v8.381h1.828v-3.34zM52.979.868C52.324.491 51.591.3 50.773.3c-.657 0-1.265.11-1.828.33-.56.218-1.009.501-1.345.844l.288.288a3.803 3.803 0 00-1.022 1.335c-.247.53-.372 1.14-.372 1.826a3.956 3.956 0 002.055 3.503c.648.364 1.39.545 2.222.545.818 0 1.551-.19 2.204-.569A4.007 4.007 0 0054.5 6.847c.365-.659.546-1.396.546-2.209 0-.807-.183-1.54-.546-2.202A3.961 3.961 0 0052.98.868zM52.9 5.981c-.2.396-.485.705-.852.928a2.415 2.415 0 01-1.273.335c-.49 0-.917-.108-1.285-.323a2.21 2.21 0 01-.849-.867 2.476 2.476 0 01-.294-1.19c0-.424.077-.778.228-1.06.15-.284.356-.533.612-.75l-.288-.287c.208-.223.472-.403.788-.538a2.723 2.723 0 011.088-.202c.481 0 .904.112 1.273.335.369.223.653.532.852.927.2.396.3.843.3 1.347 0 .502-.1.95-.3 1.345zM39.382.445h-1.828v8.381h1.828V.445zM4.523 14.939c.756-.464 1.61-.695 2.565-.695.995 0 1.813.201 2.456.604.643.404 1.183 1.014 1.622 1.833l1.432-.971c-.503-1.018-1.22-1.801-2.15-2.35-.928-.547-2.066-.822-3.42-.822-1.274 0-2.424.303-3.451.911-1.028.608-1.836 1.458-2.426 2.548-.588 1.092-.885 2.33-.885 3.718 0 1.401.297 2.646.885 3.736a6.377 6.377 0 002.446 2.537c1.041.6 2.204.902 3.491.902 1.314 0 2.418-.275 3.312-.823.895-.549 1.628-1.346 2.198-2.387l-1.472-1.03c-.478.9-1.014 1.546-1.612 1.941-.597.397-1.404.594-2.426.594-1.007 0-1.884-.227-2.625-.682-.743-.456-1.316-1.094-1.72-1.913-.406-.82-.607-1.777-.607-2.875 0-1.056.21-2.002.627-2.835.419-.831 1.005-1.48 1.76-1.941zm20.197-1.468c-1.04-.62-2.217-.931-3.529-.931-1.312 0-2.49.311-3.532.931a6.482 6.482 0 00-2.436 2.568c-.584 1.09-.876 2.315-.876 3.676 0 1.36.292 2.587.876 3.676a6.525 6.525 0 002.436 2.567c1.042.62 2.218.932 3.532.932s2.488-.312 3.53-.932a6.483 6.483 0 002.436-2.567c.584-1.09.876-2.315.876-3.676 0-1.361-.292-2.586-.877-3.676a6.495 6.495 0 00-2.435-2.568zm.817 9.068a4.771 4.771 0 01-1.76 1.944c-.755.47-1.617.702-2.584.702-.97 0-1.83-.233-2.585-.702a4.763 4.763 0 01-1.76-1.944c-.418-.825-.627-1.766-.627-2.824 0-1.056.21-1.998.626-2.825a4.757 4.757 0 011.761-1.941c.756-.47 1.618-.705 2.585-.705.967 0 1.83.235 2.585.705a4.766 4.766 0 011.759 1.941c.419.825.626 1.769.626 2.825 0 1.058-.21 2-.626 2.824zm13.794.328l.12 1.644h-.12l-6.644-11.732h-2.504V26.65h1.829V16.563l-.12-1.644h.12l6.642 11.732h2.507V12.779h-1.83v10.088zm13.447 0l.118 1.644h-.118l-6.645-11.732h-2.506V26.65h1.831V16.563l-.12-1.644h.12L52.1 26.65h2.507V12.779h-1.83v10.088zm6.124-2.399h6.344v-1.506h-6.344v-4.479h7.022V12.78h-8.851v13.87h8.97v-1.705h-7.14v-4.478zm12.948-5.529c.756-.464 1.61-.695 2.565-.695.996 0 1.814.201 2.456.604.643.404 1.183 1.014 1.622 1.833l1.433-.971c-.504-1.018-1.221-1.801-2.15-2.35-.929-.547-2.067-.822-3.421-.822-1.273 0-2.424.303-3.451.911-1.028.608-1.836 1.458-2.426 2.548-.59 1.09-.884 2.329-.884 3.716 0 1.401.296 2.646.884 3.736a6.377 6.377 0 002.446 2.537c1.041.6 2.204.902 3.491.902 1.314 0 2.418-.275 3.313-.824.894-.548 1.628-1.345 2.198-2.386l-1.473-1.03c-.478.9-1.014 1.546-1.612 1.941-.596.398-1.404.594-2.426.594-1.007 0-1.883-.227-2.625-.682-.743-.456-1.315-1.095-1.72-1.914s-.607-1.776-.607-2.874c0-1.056.21-2.002.627-2.835.419-.829 1.005-1.477 1.76-1.94zm9.708-2.16v1.664h4.138v12.208h1.829V14.443h4.116v-1.664H81.557z" fill="#F2F2F2"/></svg>